<?xml version="1.0" encoding="utf-8"?>
<!-- Generator: Adobe Illustrator 25.2.3, SVG Export Plug-In . SVG Version: 6.00 Build 0)  -->
<svg version="1.1" id="Capa_1" xmlns="http://www.w3.org/2000/svg" xmlns:xlink="http://www.w3.org/1999/xlink" x="0px" y="0px"
	 viewBox="0 0 26.2 38.2" style="enable-background:new 0 0 26.2 38.2;" xml:space="preserve">
<style type="text/css">
	.st0{fill:#FFFFFF;}
</style>
<g>
	<path class="st0" d="M16.5,4.9c1.5,0,2.8,0,4.2,0c2.1,0,3.3,1.6,3.3,4.3c0,0.3,0,0.6,0,1c0,1.3-0.1,1.5-1,2c0,0.3,0,0.6,0,0.9
		c0,6.6,0,13.2,0,19.8c0,2.7-1.2,4.3-3.3,4.3c-4.5,0-9,0-13.4,0c-2,0-3.3-1.6-3.3-4.2c0-6.6,0-13.3,0-19.9c0-0.3,0-0.6,0-0.9
		c-0.9-0.5-1-0.7-1-1.9c0-0.5,0-1,0-1.4c0-2.2,1.3-3.8,3-3.8c1.5,0,3,0,4.5,0c0-0.8,0-1.6,0-2.3c0-1,0.4-1.5,1.2-1.5
		c1.5,0,3.1,0,4.6,0c0.8,0,1.2,0.5,1.2,1.5C16.5,3.3,16.5,4,16.5,4.9z M9.5,23.5c0-2.7,0-5.4,0-8c0-1.1-0.4-1.7-1-1.6
		c-0.6,0-1,0.6-1,1.6c0,5.3,0,10.7,0,16c0,1.1,0.4,1.7,1,1.7s1-0.6,1-1.6C9.5,28.9,9.5,26.2,9.5,23.5z M12,23.4c0,2.7,0,5.4,0,8.1
		c0,1,0.4,1.6,1,1.6s1-0.6,1-1.6c0-5.4,0-10.7,0-16.1c0-1-0.4-1.6-1-1.6s-1,0.6-1,1.6C12,18.1,12,20.8,12,23.4z M16.5,23.5
		c0,2.7,0,5.4,0,8c0,1,0.4,1.6,1,1.6s1-0.6,1-1.6c0-5.4,0-10.7,0-16.1c0-1-0.4-1.6-1-1.6s-1,0.6-1,1.6
		C16.5,18.1,16.5,20.8,16.5,23.5z M22,9.3c0-1.4-0.3-1.9-1.3-1.9c-5.1,0-10.2,0-15.4,0c-1,0-1.4,0.5-1.2,1.9C10,9.3,16,9.3,22,9.3z"
		/>
</g>
</svg>
