<?xml version="1.0" encoding="iso-8859-1"?>
<!-- Uploaded to: SVG Repo, www.svgrepo.com, Generator: SVG Repo Mixer Tools -->
<svg fill="#000000" height="500px" width="500px" version="1.1" id="Layer_1" xmlns="http://www.w3.org/2000/svg" xmlns:xlink="http://www.w3.org/1999/xlink" 
	 viewBox="0 0 512 512" xml:space="preserve">
<g>
	<g>
		<path d="M428.238,133.038c-1.28-0.813-2.495-1.761-3.605-2.871l-24.418-24.419c-0.612-0.612-1.161-1.263-1.683-1.93
			L265.215,237.135l-14.852,14.852l-7.357-7.357c-4.019-4.019-10.161-5.003-15.235-2.443L8.196,353
			c-13.005,6.563-9.835,25.966,4.583,28.049l110.801,29.022c14.605,3.826,25.513,16.003,27.716,30.939l1.815,12.306
			c1.955,13.262,19.062,17.398,26.86,6.495l109.518-153.135c3.745-5.235,3.152-12.41-1.399-16.961l-8.264-8.264l14.852-14.852
			L428.238,133.038z M185.459,388.686c-2.051,2.051-4.43,2.768-7.118,2.768c-2.688,0-5.067-1.334-7.118-3.385l-35.402-35.402
			c-4.101-4.101-4.504-10.349-0.402-14.45c4.101-4.101,10.349-3.699,14.45,0.402l35.402,35.402
			C189.372,378.123,189.561,384.585,185.459,388.686z M221.28,352.864c-2.051,2.051-4.78,3.119-7.469,3.119
			c-2.688,0-5.418-0.983-7.469-3.034l-35.402-35.402c-4.101-4.101-4.064-10.789,0.038-14.889c4.101-4.101,10.789-4.139,14.889-0.038
			l35.402,35.402C225.372,342.123,225.382,348.763,221.28,352.864z"/>
	</g>
</g>
<g>
	<g>
		<path d="M506.756,56.787L450,46.057c-2.525-0.477-5.093,0.594-6.53,2.724l-26.54,39.335l-1.941,2.86l24.417,24.417l4.726-3.192
			l65.021-43.75C513.926,65.239,512.409,57.856,506.756,56.787z"/>
	</g>
</g>
</svg>