<?xml version="1.0" encoding="utf-8"?>
<!-- Generator: Adobe Illustrator 25.2.3, SVG Export Plug-In . SVG Version: 6.00 Build 0)  -->
<svg version="1.1" id="Fondo" xmlns="http://www.w3.org/2000/svg" xmlns:xlink="http://www.w3.org/1999/xlink" x="0px" y="0px"
	 viewBox="0 0 1600 768" style="enable-background:new 0 0 1600 768;" xml:space="preserve">
<style type="text/css">
	.st0{fill:#212529;}
	.st1{fill:#B5B2B2;}
</style>
<rect id="Fondocolor" x="0" class="st0" width="1600" height="768"/>
<g>
	<path class="st1" d="M197.2,492.9c-16.4,10.3-21.2,28.5-12.6,43.4c8.6,15,26.6,20.2,42.6,11.9c44.9-23.3,89.7-46.8,134.6-70.2
		c20-10.4,42.1-7.6,58.3,7.2c25.3,23.1,19.8,64.4-10.1,81.1c-25.5,14.3-51.7,27.3-77.7,40.7c-5.4,2.8-11.2,1-13.5-3.8
		c-2.6-5,0.2-10.7,5.2-13.1c25.1-13.2,50.3-26.2,75.4-39.4c16.1-8.5,22.3-26,15.2-41.6c-7.8-16.8-27-23.2-44.2-14.4
		c-31.3,16.2-62.6,32.6-93.9,48.9c-13.4,7-26.8,14-40.2,21c-24.9,12.9-53.8,5.1-67.6-18c-14-23.5-7.6-52.1,15.5-68.1
		c2.7-1.9,3.1-3.3,1.3-5.7c-8.9-15.6-6.2-26,12.4-30c2.1-0.5,2.6,0.6,3.3,1.9c9.8,18.8,19.6,37.6,29.5,56.4c1.1,2,0.5,2.8-1.4,3.7
		C207.6,517.1,206.5,515.6,197.2,492.9z"/>
	<path class="st1" d="M388.6,434c-0.8,2.9-3.4,4.6-6.2,6.1c-26.8,14-53.6,27.9-80.4,42c-3.4,1.8-4.5,0.8-6-2.2
		c-13.3-25.7-26.7-51.4-40.2-77c-1.9-3.6-1-4.8,2.2-6.4c26.7-13.8,53.3-27.7,79.9-41.6c5.6-2.9,12.5-0.7,15.5,4.8
		c11.3,21.6,22.5,43.2,33.8,64.8C388.7,427.4,389.8,430.3,388.6,434z"/>
	<path class="st1" d="M256.2,502.8c-3.1-0.9-4.8-3.2-6.2-5.9c-11.5-21.9-23-43.9-34.3-65.9c-3.4-6.6-2-11.3,4.5-14.6
		c16.5-10.5,17.3-12,25.2,7.3c11.2,21.4,22.2,42.8,33.6,64.1c2.3,4.3,1.6,6-2.6,7.7C269.6,497.7,263.7,504.6,256.2,502.8z"/>
	<path class="st1" d="M427.6,342.1c6.1,9.8,10.6,20.4,16.4,30.4c1.5,2.7,0.3,3.4-1.8,4.5c-14.1,7.3-28.3,14.6-42.3,22.1
		c-2.4,1.3-3.8,1.7-5.3-1.3c-4.5-9.2-9.4-18.2-14.2-27.3c-1.3-2.5-2.6-4.1,6.3-6.2c13.9-3.2,26.4-10.4,36.9-20
		C424.7,343.1,425.9,342.8,427.6,342.1z"/>
	<path class="st1" d="M493.1,345.5c-7.4,22-1.5,17.5-25,20.6c-4.3,0.6-6.7-0.2-8.7-4.5c-4-8.6-8.5-16.8-13.1-25.1
		c-1.7-2.8-1.2-5.1,1.3-7c17.1-19.2,9.3-16.5,33-9.7C502.1,325.8,499.4,325.6,493.1,345.5z"/>
	<path class="st1" d="M316.2,699.2c-2.7-4.9-9-5.7-13.8-2.9c-24.8,13.7-49.6,27.5-74.4,41.1c-37.9,20.8-68.2-34-30.7-55l-9.1-16.1
		c-58.2,31.6-13.1,117.9,46.9,88.6c26-13.4,51.3-28.1,76.8-42.3C317.2,709.6,318.9,703.8,316.2,699.2z"/>
	<path class="st1" d="M362.5,580.5c-2.6-5-8.9-5.9-13.7-3.2c-21.5,11.2-43,22.5-64.5,33.6c3.7,5.2,7.4,10.3,10.7,15.8
		c21.1-10.7,41.9-22,62.8-33C363.2,590.9,365,585.1,362.5,580.5z"/>
	<path class="st1" d="M475.3,614.7c-2.6-5-8.9-5.9-13.7-3.2c-21.5,11.2-43,22.5-64.5,33.6c3.7,5.2,7.4,10.3,10.7,15.8
		c21.1-10.7,41.9-22,62.8-33C476,625.2,477.8,619.4,475.3,614.7z"/>
	<path class="st1" d="M453.1,615.9c55.6-36.7,110.9,42.1,58,82.2c-23.7,17.1-48.3,33-72.5,49.3c-5,3.4-11,2.2-13.9-2.2
		c-3.2-4.7-1-10.6,3.6-13.6c23.4-15.9,47-31.7,70.4-47.7c35.7-24.3,0.6-76.2-35.2-52.3"/>
	<path class="st1" d="M381.6,775.5c3.6,4.3,10.5,4.1,15.2,0.8c21.1-14.3,42-28.7,63.1-43.1c-4.8-4.3-9.7-8.6-14.2-13.3
		c-20.7,13.8-41,28.1-61.4,42.1C379,765.6,378.1,771.5,381.6,775.5z"/>
	<path class="st1" d="M313.5,605.8c-2.6-5-8.9-5.9-13.7-3.2c-21.5,11.2-43,22.5-64.5,33.6c3.7,5.1,7.3,10.2,10.6,15.6
		c21.2-10.3,42-21.8,63-32.7C314.2,616.2,316,610.4,313.5,605.8z"/>
	<path class="st1" d="M250.4,637.4c-3.1-4.7-9.4-5.1-13.9-2c-20.1,13.4-41.4,25.4-60.8,39.8c4,4.6,8,9.3,11.7,14.3
		c20.1-12.5,39.7-25.7,59.6-38.5C252.1,647.7,253.4,641.8,250.4,637.4z"/>
	<path class="st1" d="M355,677.2c-2.8-4.9-9.1-5.6-13.8-2.8c-21.2,11.8-42.3,23.8-63.4,35.6c3.9,5.1,7.7,10.1,11.2,15.5
		c20.8-11.3,41.2-23.3,61.8-34.9C356.1,687.6,357.7,681.8,355,677.2z"/>
	<path class="st1" d="M410.7,648.4c-2.6-5-8.9-5.9-13.7-3.3c-21.5,11.2-43,22.4-64.5,33.6c3.7,5.2,7.4,10.4,10.7,15.8
		c21.1-10.7,41.9-22,62.9-32.9C411.5,658.8,413.3,653.1,410.7,648.4z"/>
	<path class="st1" d="M396.8,400.2c-6.1-9.8-10.6-20.4-16.4-30.4c-1.5-2.7-0.3-3.4,1.8-4.5c14.1-7.3,28.3-14.6,42.3-22.1
		c2.4-1.3,3.8-1.7,5.3,1.3c4.5,9.2,9.4,18.2,14.2,27.3c1.3,2.5,2.6,4.1-6.3,6.2c-13.9,3.2-26.4,10.4-36.9,20
		C399.6,399.1,398.5,399.4,396.8,400.2z"/>
</g>
</svg>
