<?xml version="1.0" encoding="utf-8"?>
<!-- Generator: Adobe Illustrator 25.2.3, SVG Export Plug-In . SVG Version: 6.00 Build 0)  -->
<svg version="1.1" id="Capa_1" xmlns="http://www.w3.org/2000/svg" xmlns:xlink="http://www.w3.org/1999/xlink" x="0px" y="0px"
	 viewBox="0 0 79 108.8" style="enable-background:new 0 0 79 108.8;" xml:space="preserve">
<style type="text/css">
	.st0{fill:#FFFFFF;}
</style>
<g>
	<path class="st0" d="M60.1,0c8.4,0,14.8,5.9,17.5,14.6c2.8,9.2,1.4,19.5-3.8,26.8c-9,12.5-18.1,24.9-27.1,37.4
		c-5.9,8.1-11.8,16.3-17.7,24.3c-0.8,1.1-2.1,2-3.2,2.2c-7.4,1.3-14.8,2.4-22.2,3.5c-2.5,0.4-3.7-1.4-3.4-4.8
		c0.8-10.4,1.7-20.8,2.6-31.3c0.1-1.2,0.6-2.5,1.2-3.3C18.9,48.6,34,27.8,49.1,7C52.5,2.3,56.7,0.1,60.1,0z M47.6,20.4
		c-12.7,17.5-25.5,35.1-38,52.4c2,2.7,4.1,5.7,6.1,8.5c12.7-17.5,25.4-35,38.1-52.5C51.7,26,49.5,23.1,47.6,20.4z M26.2,95.7
		c12.7-17.5,25.4-35,37.9-52.2c-2-2.8-4.2-5.8-6.2-8.6C45.3,52.3,32.6,69.8,19.9,87.2C22,90,24.2,92.9,26.2,95.7z M68.6,38
		c4.1-4.8,6.1-10.8,4.6-18.2C72,13.2,68.7,9.1,63.8,7.7c-5.2-1.5-9.3,1.4-12.5,6.6C57.1,22.2,62.8,30,68.6,38z M20.1,98.9
		c-4.3-5.9-8.6-11.8-12.9-17.7c-0.5,6.5-1.1,13.1-1.6,20C10.6,100.3,15.4,99.6,20.1,98.9z"/>
</g>
</svg>
