<?xml version="1.0" encoding="utf-8"?>
<!-- Generator: Adobe Illustrator 25.2.3, SVG Export Plug-In . SVG Version: 6.00 Build 0)  -->
<svg version="1.1" id="Capa_1" xmlns="http://www.w3.org/2000/svg" xmlns:xlink="http://www.w3.org/1999/xlink" x="0px" y="0px"
	 viewBox="0 0 750 500" style="enable-background:new 0 0 750 500;" xml:space="preserve">
<style type="text/css">
	.st0{fill:#F2F2F2;}
</style>
<g>
	<path class="st0" d="M130.7,380.7c-0.7-1-1.9-0.9-2.9-1.2c-4.3-1.4-5.9-4.4-4.1-8.6c5.3-12.6,11.7-24.6,17.7-36.8
		c12.1-24.9,23.9-49.8,32.5-76.2c0.2-0.7,0.4-1.4,0.6-2c0.5-1.2,0.4-2.4-0.6-3.3c-1.1-0.9-2.2-0.5-3.4,0c-7,3.1-13.9,6.1-20.9,9.1
		c-1,0.4-2.1,0.8-3.1,1c-3.2,0.8-5.2-0.4-6-3.7c-0.9-3.5-0.5-7,0.5-10.4c0.8-2.8,2.6-4.6,5.5-5.5c11.5-3.4,22.1-8.9,33.1-13.5
		c1.2-0.5,1.9-1.2,2.3-2.5c6.2-19.3,12.5-38.4,15.7-58.5c0.7-4.7,1.1-9.4,0.9-14.1c-0.5-9.9-6.4-14.8-16.4-13.6
		c-14.3,1.7-27.4,6.9-39.7,14c-28.2,16.2-54.2,35.4-78.1,57.6c-8.5,7.9-16.8,15.9-25.7,23.3c-4.8,4-9.7,4.3-15.1,0.9
		c-4.5-2.9-7.5-7.1-10.2-11.6c0-1.4,0-2.8,0-4.2c1.7-4.4,4.9-7.5,8.4-10.4c33.3-28.7,69.8-52.6,109.9-70.9
		c14.8-6.8,29.9-12.5,46-15.4c6.8-1.2,13.5-1.9,20.4-0.8c10.4,1.7,17.6,9.3,19.9,20.7c1.8,8.9,1.3,17.8,0.3,26.7
		c-1.6,14-4.7,27.6-7.9,41.3c-0.2,0.7-0.3,1.4-0.3,2.1c-0.1,3.2,1.2,4.2,4.2,3.3c13.7-4.2,27.4-8.3,41-12.7c2.6-0.8,3.4,0.1,4.1,2.2
		c3.1,9.2-1.4,17.9-10.7,20.2c-12.5,3.1-25.1,6-37.4,10c-5.2,1.7-8.5,4.4-10,9.6C188.2,289,170.6,329.5,153,370
		c-2.5,5.7-6.4,8.9-12,10.7C137.6,380.7,134.1,380.7,130.7,380.7z"/>
	<path class="st0" d="M566.8,116c0.1,0.5,0.5,0.5,0.9,0.6c5.5,1.8,7.6,5.3,5.9,10.9c-2.4,8-5.7,15.6-9,23.2
		c-16.1,37.3-28.9,75.8-40.3,114.7c-2.7,9.3-5,18.8-5.4,28.6c-0.2,3.3-0.2,6.6,0.7,9.9c1.7,6,6,8.6,12.2,7.2c2.6-0.6,4.8-1.9,7.2-3
		c3.8-1.8,6-1.6,8.5,0.9c2.6,2.6,3.1,5.9,1.2,9.4c-3.2,5.8-8.7,8.5-14.8,9.9c-9.6,2.2-18.8,1-27.1-4.6c-4.8-3.3-9-3.4-13.9-0.4
		c-5,3-10.6,4.8-16.5,5.1c-12.6,0.7-21.9-5.2-26.8-16.8c-8.4-20-0.6-50.2,16.6-63.5c10.1-7.8,21-8.7,32.5-3.4
		c3.3,1.5,6.1,3.6,6.5,7.6c0.3,3.4-1.3,5.1-4.7,5.2c-1.5,0-3-0.1-4.5-0.5c-6.1-1.6-11.5,0-15.8,4.3c-11.6,11.5-15.7,25.5-11.9,41.3
		c2.6,10.7,12.6,14,21.5,7.5c7-5.1,9.9-12.6,10.8-20.7c3.4-30.9,11.5-60.7,20.9-90.3c7.3-23.1,14.5-46.2,23.9-68.6
		c0-0.1,0.1-0.2,0.1-0.3c2.6-6.7,5.6-12.8,13.8-14.1C562,116,564.4,116,566.8,116z"/>
	<path class="st0" d="M281,258.2c-7.7-0.7-15.5-0.8-23.2-1.6c-2.3-0.2-4.6-0.3-6.8,0.6c-2.4,1-3.8,2.7-3.6,5.3
		c0.2,2.5,1.8,3.6,4.3,4.3c12.9,3.3,25.9,2.7,38.9,1.4c3.5-0.3,7-0.6,10.5-0.9c3.3-0.3,5.3,1.3,6.5,4.2c1.3,3.3,0.8,6.1-1.5,8.3
		c-1.6,1.4-3.4,2.5-5.3,3.4c-4.5,2.2-9.3,3.7-14,5.4c-4.7,1.7-8.9,4.1-12.1,8.1c-1.8,2.3-3.1,4.8-1.1,7.7s4.8,2.5,7.6,1.8
		c4.3-1.1,8.1-3.3,11.9-5.6c10.4-6.2,20.1-13.7,30.2-20.4c10.4-6.9,21.4-12.1,33.8-14.4c2.5-0.5,5-0.5,7.5-0.1
		c3.3,0.4,5.7,2.2,6.9,5.5c0.6,1.8,1.4,3.5,2.4,5.2c2.5,4.5,5.4,4.8,8.7,0.9c1.5-1.7,2.8-3.6,4.2-5.5c6.4-8.2,12.7-16.7,21.6-22.5
		c4.6-3,9.4-4.8,15.1-3.8c8.5,1.5,12.5,6.6,11.8,15.2c-0.7,8.1-2.9,15.9-4.9,23.8c-1.8,6.8-4.2,13.4-4.5,20.5
		c-0.3,5.8,1.2,7.1,7.1,6.7c3.2-0.2,6.2-0.4,8.7,2.2c2.8,3,2.6,6.3-0.7,8.8c-3.7,2.9-8.2,3.1-12.6,3.5c-3,0.3-6,0-9-0.6
		c-8.5-1.7-13.1-7.7-13.4-16.8c-0.3-7.9,1.4-15.6,2.7-23.3c0.4-2.1,0.8-4.1,0.6-6.3c-0.1-1.7-0.6-3.2-2.3-4c-1.6-0.7-2.9,0.4-4,1.4
		c-3,2.6-5.3,5.8-7.5,9c-6.3,8.9-12.5,17.7-18.7,26.6c-2.6,3.6-5.7,6.7-9.2,9.4c-6.9,5.3-16.3,2.1-18.7-6.2
		c-2.1-7.2-0.7-14.3,0.8-21.4c0.4-2,0.9-3.9,1.4-5.9c0.4-1.5,0.2-2.8-1-3.8c-1.2-0.9-2.5-1-4-0.3c-3.5,1.5-6.6,3.8-9.8,5.9
		c-14.8,9.8-29.6,19.7-43.6,30.7c-7,5.5-15.1,8.1-24.2,6.5c-12.7-2.3-19.4-15.4-13.9-27.2c2.4-5.1,6-9.2,9.9-13.2
		c1-1,2.3-1.9,1.6-3.6c-0.6-1.5-2-1.4-3.3-1.6c-8.7-1.2-17.2-2.7-24.9-7.4c-7.6-4.7-10.7-11.9-8.5-19.4c1.1-3.6,3.4-6.3,6.5-8.4
		c6.2-4.1,13.3-5.4,20.5-6.3c12.3-1.5,24.7-0.5,37-1.2c7.4-0.4,14.5-1.6,21.6-3.7c2-0.6,2.7-0.3,3.2,1.9c2.5,12.7-4.2,20.7-17.8,21
		C293.7,258.3,287.4,258.2,281,258.2z"/>
	<path class="st0" d="M603.3,257.3c-8.8-0.6-17.6-1.2-26.5-1.8c-2.1-0.1-4.2-0.3-6.3,0.3c-2.5,0.7-4.3,2.2-4.3,5
		c0,2.9,1.7,4.5,4.2,5.1c10.2,2.4,20.6,4.5,31,5.6c3.4,0.4,6.8,0.7,10.2,1.3c2.9,0.5,5.4,1.9,6.3,5c0.8,2.9-0.4,5.3-2.5,7.3
		c-3.8,3.6-8.5,5.1-13.4,6.3c-3.4,0.8-6.8,1.8-9.8,3.6c-1.9,1.1-3.6,2.5-4.9,4.4c-1.9,2.7-2.9,5.5-1.2,8.7c1.7,3.2,4.6,3.6,7.8,3.4
		c4.5-0.3,8.6-2.2,12.3-4.5c19.3-11.7,34.9-27.2,46.5-46.7c2.8-4.8,4.7-9.6,3.6-15.6c-1.3-6.9-0.6-14,2.7-20.6
		c1.4-2.8,3.2-5.4,5.7-7.3c2.8-2.1,5.7-3.8,9.4-2.2c4,1.7,6.3,4.6,6.8,8.8c0.6,4.8-0.1,9.6-0.9,14.4c-0.8,4.8,0.1,8.7,4,11.8
		c2.7,2.1,5.3,4.3,8,6.4c1.7,1.3,3.4,2.5,5.1,3.8c7.2,5.6,7.5,8.1,2,15.2c-3.7,4.8-7.6,9.4-10,15c-2.2,5.4-1.1,9.2,3.2,11.7
		c2.3,1.3,4.7,1.4,7.3,0.7c3.2-1,5.9-2.9,8.8-4.6c1.9-1.1,3.7-2.1,5.8-0.6c2.2,1.6,3.1,3.9,2.7,6.6c-0.4,2.6-1.6,4.7-3.3,6.6
		c-10.2,11.7-29,13.4-41.2,3.9c-5.4-4.2-6.5-9.9-5-16.2c0.9-4.1,2.8-7.9,4.7-11.7c1.2-2.3,2.5-4.6,3.7-6.9c3-5.8-0.4-11.5-7-11.5
		c-2.2,0-3.8,1-5,2.8c-3.7,5.6-7.3,11.3-11.1,16.8c-9.3,13.5-20.8,24.7-35.4,32.5c-11.5,6.1-23.7,9.3-36.8,8.2
		c-9.9-0.9-17.9-7.6-19.8-16.6c-1-5,0.3-9.3,3.7-13.1c3.1-3.5,7-5.9,10.8-8.6c1.4-1,3.6-1.6,3.3-3.9c-0.4-2.3-2.5-2.5-4.4-3
		c-7.2-2.1-14.6-3.7-21.2-7.4c-8.1-4.6-11.6-11.9-9.3-19.8c1.5-4.9,4.9-8.2,9.2-10.7c7.8-4.5,16.3-6.4,25.1-6.6
		c16.4-0.3,32.7-1.3,48.6-5.5c2.1-0.6,2.9-0.1,2.9,2.3c-0.2,13.4-8.5,21.8-21.9,21.8c-1.3,0-2.6,0-3.9,0
		C603.3,257.2,603.3,257.3,603.3,257.3z"/>
</g>
</svg>
