<?xml version="1.0" encoding="utf-8"?>
<!-- Generator: Adobe Illustrator 25.2.3, SVG Export Plug-In . SVG Version: 6.00 Build 0)  -->
<svg version="1.1" id="Capa_1" xmlns="http://www.w3.org/2000/svg" xmlns:xlink="http://www.w3.org/1999/xlink" x="0px" y="0px"
	 viewBox="0 0 750 500" style="enable-background:new 0 0 750 500;" xml:space="preserve">
<style type="text/css">
	.st0{fill:#F2F2F2;}
</style>
<g>
	<path class="st0" d="M266.5,138.2c-9.3-1.1-13.8,1.7-14.9,9.3c-0.9,5.8-0.9,11.8-1,17.8c-0.1,14.6,0,29.2,0,45.4
		c3.3-1.4,5.8-2,7.6-3.4c6.8-5.4,13.7-10.8,20-16.8c3.7-3.4,6.5-3.7,10-0.1c12.9,13.2,21.6,27.7,20.6,47.4
		c-1.1,21.6,0.5,43.3-0.7,64.8c-1.6,27.9-14.3,49.8-40.8,61.3c-7.4,3.2-16.1,3.1-24.3,4.3c-1.3,0.2-2.9-0.8-4.4-2.6
		c2.1-0.6,4.2-1.3,6.3-1.7c16.3-3.5,26.8-13.7,28.9-30c2.4-18.6,3.1-37.4,3.7-56.2c0.4-15-0.2-30.1-1.1-45.1
		c-0.3-5.1-2.5-10.4-4.7-15.1c-2.1-4.6-6.1-7.3-11.7-5.9c-5.1,1.2-9.4,6.5-9.4,11.6c-0.1,21.2-0.3,42.4,0.2,63.6
		c0.1,3.8,3,8,5.6,11.1c5.2,6.4,4.7,8.6-2.8,11.3c-3.5,1.3-6.7,3.8-9.3,6.5c-2.9,2.9-5,6.5-7.9,10.4c-8.6-7.9-16.7-15.3-25-23
		c0.4-0.9,0.6-2.1,1.2-2.6c6.7-5.2,6.4-12.5,6.4-20c0.1-39.9,0.1-79.7,0.6-119.5c0.1-4.6,2.4-10.3,5.7-13.6
		c10.6-10.6,23.8-16.1,39.1-15.6c11.2,0.4,20.5,10.9,19.5,22c-0.6,6.8-7.4,12-14.9,11.4c-6.9-0.5-11.4-6-10.3-13.2
		c0.3-2.2,1.8-4.3,2.9-6.3C262.9,143.4,264.5,141.2,266.5,138.2z"/>
	<path class="st0" d="M92.8,303.5c0-4.7,0-8.5,0-12.4c0-6.9,0.2-13.9-0.1-20.8c-0.3-9.8-8.2-13.9-16.5-8.9c-2.7,1.6-5.3,3.4-8.1,5.1
		c-16.9,10.1-34.2,0.9-35.9-18.8c-1.2-13.5,4.8-23.5,15.3-30.9c12.5-8.7,25.4-16.9,38-25.4c3.6-2.4,6.4-2.8,8.5,1.6
		c5.3,10.9,17.1,10.6,22.5,0c0.9-1.8,2.8-3.1,4.8-4.2c1.5,9.3-2.9,16.5-8,23.4c-12.9,17.4-28.3,16-45.3,3.9
		c0,11.5-0.4,21.2,0.1,30.8c0.4,6.9,5.9,9.2,12,5.6c3.7-2.2,7.1-5.1,10.7-7.4c13.1-8.2,27.3-3.4,32.6,11.3c4.3,12,3.5,24.1,1,36.3
		c-1.6,7.7-7.3,12.1-13.8,15.4c-12.2,6.1-25,11-35.3,20.4c-2.4,2.2-4.9,2.1-7.2-0.5c-1.7-1.9-3.7-3.5-5.7-5.2
		c-10.1-8.9-17.7-8.7-27.4,0.5c-1.6,1.5-3.5,2.7-5.9,3.5c0.1-11.6,7.9-18,15.9-24C60.7,291.2,76.2,292.5,92.8,303.5z"/>
	<path class="st0" d="M492.6,310.5c-3.3,2.8-6.5,5.5-9.8,8.3c-0.7-0.5-1.4-1.1-2-1.6c1.4-2.6,2.3-5.5,4.2-7.6c5.1-5.6,7-12,6.9-19.6
		c-0.5-25.6-0.8-51.1-0.9-76.7c0-4.3-1.2-6.3-5.9-6.9c-7-0.8-9.7-6.4-5.9-12.3c0.9-1.4,4.1-1.8,6.2-1.7c4.4,0.3,6.2-1.2,7-5.7
		c2.6-14,6.3-27.7,18.1-37.1c5.7-4.5,12.1-8.2,18.3-12c1.5-0.9,3.6-1,6.4-1.6c-0.7,2.2-0.7,3.9-1.5,4.6c-8.3,6.3-8.5,15.7-9.3,24.7
		c-0.5,5.7-0.4,11.5-0.3,17.2c0.1,7.9,1.9,9.7,9.5,10.6c8,0.9,9.3,3,6.7,10.9c-13.6,1.4-13.6,1.4-13.6,15.4
		c0,22.4-0.1,44.8,0.1,67.2c0,3.8,1,7.9,2.8,11.3c3.7,7.2,6.7,7.6,13.9,3.2c0.8-0.5,1.8-0.4,4.3-1c-1.8,3-2.5,5.2-4,6.6
		c-7.7,7.4-15.6,14.6-23.5,21.9c-3.9,3.6-7.7,3.7-11.2-0.6c-3.4-4.1-7-8.1-10.3-12.3c-1.7-2.2-3-4.7-4.5-7.1
		C493.9,309.3,493.2,309.9,492.6,310.5z"/>
	<path class="st0" d="M387.3,297.3c-8.8,7.6-17.5,15.1-26.3,22.7c-1.4,1.2-2.8,2.2-4.3,3.2c-9.4,7.1-11.6,7.2-20.4-0.9
		c-13.3-12.4-21.5-27.2-21.1-46c0.2-10.1,0.5-20.2-0.1-30.3c-0.8-13,4.3-23.2,13.8-31.4c6.6-5.7,13.6-10.8,20.5-16.2
		c4.4-3.4,8.9-6.6,13.1-10.2c5.5-4.7,8.2-5.1,12.6,0.4c13,16.7,19.6,37.3,5.7,56.9c-7,9.9-15.7,18.8-24.4,27.4
		c-9.4,9.3-9.8,10.6-0.8,20.5c2,2.2,4.2,4.2,6.6,6c7,5.5,9.9,5.3,16.5-0.5c2-1.8,4.5-2.9,6.8-4.4
		C386.1,295.4,386.7,296.3,387.3,297.3z M346.8,270.2c0.7,0.5,1.5,1,2.2,1.6c2.5-1.5,5.4-2.5,7.4-4.5c12.4-12.6,12-39.8-0.9-52
		c-1.4-1.4-4.1-2.7-5.6-2.2c-1.4,0.4-3,3.3-3,5.1C346.7,235.5,346.8,252.8,346.8,270.2z"/>
	<path class="st0" d="M621.6,296.5c-1.2,1.5-2.2,3.2-3.6,4.4c-9.8,8.3-19.8,16.5-29.6,24.8c-4.3,3.6-8.6,3.4-12.9,0
		c-15-11.8-24.6-26.7-25.2-46.3c-0.3-10.1,0.7-20.3-0.2-30.3c-1.5-16.9,6-28.9,18.5-38.8c10.5-8.3,21.2-16.6,31.9-24.7
		c1-0.8,3.2-1.1,4.2-0.6c2.4,1.3,4.9,2.8,6.5,4.9c15.2,20.9,16.7,41.4,1.4,60.6c-7.1,8.9-15.6,16.7-23.8,24.8
		c-6.1,6.1-6.6,8.2-1,14.8c3.5,4,7.5,7.6,11.6,11c4.3,3.4,8.6,3,12.8-0.9c2.4-2.2,5.3-3.9,8-5.8
		C620.7,295.1,621.1,295.8,621.6,296.5z M581.4,270.4c0.9,0.5,1.8,1.1,2.7,1.6c2.7-1.9,5.9-3.3,8-5.8c14.3-16.5,9.3-34.3-1.2-50.5
		c-1.1-1.6-4.6-3.3-5.9-2.7c-1.8,0.9-3.4,3.9-3.5,6C581.3,236.2,581.4,253.3,581.4,270.4z"/>
	<path class="st0" d="M712.5,292.3c-0.7,1.4-1.2,3-2.2,4.1c-10.8,10.5-21.7,20.8-32.5,31.4c-2.9,2.8-5.2,2.5-7.5-0.1
		c-7.4-8.1-14.7-16.3-22.5-25c-3.6,2.9-8.2,6.6-12.8,10.2c-0.6-0.6-1.2-1.2-1.8-1.8c1.8-2.3,3.4-4.9,5.6-6.8
		c7.4-6.2,10.1-13.8,9.6-23.5c-0.7-16.4-0.1-32.9-0.3-49.4c0-4.1-0.6-8.4-2-12.2c-2.2-6.1-5.9-6.7-10.8-2.7c-1.3,1.1-2.8,2-4.1,2.9
		c-0.6-0.4-1.2-0.9-1.8-1.4c1.9-3.1,3.3-6.7,5.9-9.1c7.3-6.9,15.2-13.2,22.8-19.8c3.6-3.1,6.5-1.2,8.5,1.6c3.5,4.8,6.5,9.9,9.8,14.9
		c3.2,4.9,4.8,5,8.2,0.2c3.3-4.7,6.5-9.5,9.7-14.2c0.3-0.4,1-0.6,1.5-0.8c11.9,10.6,14.2,10.4,23.4-1.7c3.4,7.8-0.4,21.3-7.9,28.9
		c-8.4,8.4-18.8,7.7-30.1,5.6c0,4.1,0,7.5,0,10.8c0,15.9,0.1,31.7,0,47.6c-0.1,8.6,5.3,13.9,11.3,18.4c1.6,1.2,6.2-0.2,8.7-1.7
		c3.5-2.1,6.4-5.3,9.5-8C711.4,291.4,712,291.9,712.5,292.3z"/>
	<path class="st0" d="M166.5,210.7c-0.9,4.6-1.8,7.3-1.8,9.9c0.2,18.8-0.2,37.7,1.4,56.4c1,11.4,9.2,19.5,19.4,24.6
		c1.7,0.8,5.3-1.1,7.4-2.6c3-2.1,5.5-4.9,8.2-7.4c0.6,0.5,1.3,1,1.9,1.5c-0.7,1.9-0.9,4.1-2.1,5.5c-3.3,3.6-6.9,7.1-10.6,10.2
		c-7.6,6.3-15.4,12.2-22.9,18.6c-2.7,2.3-4.8,3.3-7.4,0.3c-5.9-6.6-12.4-12.8-17.7-20c-6-8.1-8.9-17.5-8.7-27.9
		c0.2-13.7,0.3-27.4,0-41c-0.2-8,1.9-15.3,7.8-20.4c14.4-12.3,29.2-24.1,43.4-35.6c4.4,3.7,7.8,8,12.3,10.1
		c6.6,3.1,6.9-6.1,12.3-7.9c1.4,11.3-2.3,20.3-9.9,27.5C189,222.6,178.2,221.6,166.5,210.7z"/>
	<path class="st0" d="M446.5,183c4.1,3.6,7.4,7.9,11.7,10c6.6,3.1,7.5-5.2,11.5-7.9c3.4,7.4-0.2,20.4-8.2,26.9
		c-4.6,3.6-10.7,7.1-16.2,7.3c-5.3,0.2-10.8-3.9-17-6.4c-0.5,1.6-1.8,3.7-1.7,5.8c0.2,19.8-0.3,39.7,1.5,59.4
		c1,10.8,9.2,18.7,19.1,23.5c1.7,0.8,5.2-1.1,7.4-2.6c3-2.1,5.5-4.9,8.2-7.4c0.7,0.5,1.3,1.1,2,1.6c-0.8,2-1.2,4.4-2.6,5.9
		c-3.4,3.6-7,6.9-10.8,10.1c-7.4,6.2-15.1,12-22.4,18.3c-2.8,2.5-4.9,3.1-7.4,0.2c-6-6.8-12.7-13.2-18-20.5
		c-5.8-8-8.5-17.3-8.3-27.4c0.2-13.5,0.4-27,0-40.4c-0.3-9.5,3-17.4,10-23.2C418.6,204.8,432.8,194,446.5,183z"/>
</g>
</svg>
