<?xml version="1.0" encoding="utf-8"?>
<!-- Generator: Adobe Illustrator 25.2.3, SVG Export Plug-In . SVG Version: 6.00 Build 0)  -->
<svg version="1.1" id="Capa_1" xmlns="http://www.w3.org/2000/svg" xmlns:xlink="http://www.w3.org/1999/xlink" x="0px" y="0px"
	 viewBox="0 0 750 500" style="enable-background:new 0 0 750 500;" xml:space="preserve">
<style type="text/css">
	.st0{fill:#F2F2F2;}
</style>
<g>
	<path class="st0" d="M352.7,302.9c-0.2,1.4-0.4,2.7-0.5,4.1c-1,0.1-2,0.3-2.9,0.3c-16,0-32,0-48,0.1c-2.4,0-3.7-0.7-5-2.8
		c-16.9-27.4-34.1-54.6-51-82c-2.3-3.8-5.2-2.1-8.2-2.5c-0.2,0.7-0.5,1.2-0.5,1.7c0,18.9-0.3,37.9,0.1,56.8
		c0.2,13.5,7.6,20.7,21.2,22c0.5,0,1.1,0.2,1.8,0.3c0,2.1,0,4,0,6.2c-29.8,0-59.4,0-89.4,0c0-2,0-4,0-6.2c1.3-0.1,2.5-0.2,3.8-0.4
		c15.6-2,19.4-12.2,19.5-22.7c0.3-43.1,0.2-86.2,0.1-129.3c0-13.3-6.3-19.9-19.6-22c-1.2-0.2-2.4-0.4-3.8-0.7
		c-0.1-0.9-0.2-1.7-0.2-2.6c0-0.9,0-1.9,0-3.2c1.8-0.1,3.3-0.3,4.9-0.3c28.3,0,56.6-0.2,84.9,0.1c17.6,0.2,34.7,2.9,50.3,11.9
		c13,7.5,21.3,26.1,20,40.7c-2.4,25.1-18.6,36.4-41,43.4c13.3,20.4,26.5,40.7,40.5,62c0-11.6,0-22.1,0-32.4
		c6.7-2.7,8.7-1.7,10.3,4.3c3.8,13.6,10,26.1,19.8,36.2c8,8.3,18.3,12.9,29.7,14.8c8.6,1.4,17.1,1.4,25.5-1.6
		c14.5-5.2,22.9-22.3,17.7-36.8c-3.3-9-10.9-13.7-19-17.6c-15.7-7.5-31.7-14.5-47.3-22.2c-11.7-5.8-22.2-14-27.7-25.9
		c-14.7-32.1-1.1-64.5,34.5-73.9c20.9-5.5,41.3-2.7,61.5,3.7c1.7,0.6,3.6,0.8,5.2,1.5c4.4,1.8,7.3,0,9.8-3.4
		c3.8-5.3,3.8-5.3,10.7-4.4c0,19.1,0,38.3,0,57.5c-6.5,1.6-7.4,1.4-9.7-4.7c-5.7-14.8-14-27.7-27.6-36.4
		c-12.7-8.1-26.7-9.2-41.1-5.6c-9.7,2.5-15.3,9.6-17.1,19c-1.9,9.5,1.2,17.9,9.2,23.4c6.4,4.4,13.6,7.8,20.6,11.2
		c15.2,7.5,31.1,14,45.8,22.5c20.5,11.9,30.1,30.3,27.6,54.2c-1,10-6,18.3-12.3,25.9c-12.5,15.1-29.4,20.9-48.2,22.9
		C388.6,311.9,370.6,308.9,352.7,302.9z M236.4,211.1c6.6-0.5,12.4-0.5,18.1-1.4c15.7-2.7,26.4-9.7,28.9-24.7
		c1.2-7.3,1.2-14.9,1.1-22.4c-0.2-22.5-13.9-35-36.2-33.4c-8.4,0.6-11.9,4.2-11.9,12.6c0,17.9,0,35.9,0,53.8
		C236.4,200.6,236.4,205.5,236.4,211.1z"/>
	<path class="st0" d="M25.1,126.3c-0.6-6.9-0.6-6.9,5.5-6.9c28.5,0,56.9-0.1,85.3,0c16.3,0.1,32.2,2.2,47.1,9.7
		c15.6,7.9,22.4,21.1,23.8,37.7c2.3,27.3-16.4,45.4-40.4,51.8c-10.2,2.7-21.1,3.1-31.7,4c-6.9,0.6-13.8,0.1-21.2,0.1
		c-0.1,1.8-0.2,3.2-0.2,4.7c0,17.5,0.3,35.1-0.1,52.6c-0.3,11,6.8,17.3,16.2,19.4c2.4,0.5,4.9,0.8,7.6,1.3c0,1.9,0,3.9,0,6.1
		c-30.5,0-61,0-91.9,0c0-2,0-4,0-5.9c3.5-0.8,7-1.2,10.3-2.3c7.9-2.6,13-9.6,13-17.9c0.1-44.9,0.1-89.9,0-134.8
		c0-11.1-7.8-18.6-19.8-19.5C27.5,126.5,26.4,126.4,25.1,126.3z M93.2,213.7c9.3-1.6,18.1-2.6,26.6-4.9c8.5-2.3,14-8.2,16.3-17.1
		c2.7-10.7,2.9-21.4,2.3-32.3c-1-18.8-13.8-30.6-32.6-30.2c-7.5,0.2-12.9,3.2-12.8,12.6c0.4,22,0.1,44,0.1,66
		C93.2,209.3,93.2,210.8,93.2,213.7z"/>
	<path class="st0" d="M474,185.4c0.4-0.7,0.4-1,0.5-1c11.7,0.1,23.4-0.6,35,0.6c10,1,12.1,8.9,12.6,15.1c0.5,6.6-3.7,11.2-12.6,14.3
		c5.7,8.6,11.3,17.1,17.2,25.5c0.6,0.8,3,1.3,4,0.8c1.2-0.6,2.5-2.4,2.7-3.7c0.3-4.2,0.1-8.5,0.1-12.7c0-9.5-0.1-18.9,0-28.4
		c0.1-5.1,0.7-10.3-7.6-10.2c0.3-0.4,0.7-0.8,1-1.2c15,0,30,0,45.2,0c0,5.4,0,11.1,0,16.7c-0.3,0.1-0.5,0.1-0.8,0.2
		c-0.4-1.5-0.9-3-1.3-4.5c-1.7-6.2-6.2-9.8-12.5-9.9c-10.7-0.1-11.7-1-11.3,10.9c0.1,4.2,0,8.4,0,12.6c7.3,1.8,8.8,0.6,14.5-11.4
		c1.6,2.1,2,23.7,0.1,29c-1.3-8.1-4.7-14.1-14.5-13.8c0,7.8-0.3,15.2,0.2,22.6c0.1,1.3,3.4,3.3,5.4,3.4c6.9,0.6,17.2-2,21.3-12.6
		c0.4-1.1,1.5-1.9,2.3-2.8c0.4,0.3,0.8,0.5,1.3,0.8c-0.9,5.1-1.6,10.2-2.8,15.2c-0.2,1-2.1,2.4-3.2,2.4c-18.7,0.1-37.4,0.1-56,0
		c-1.3,0-3.1-1.3-3.8-2.4c-4.6-7.4-8.9-15-13.4-22.4c-0.6-1-1.9-1.6-2.9-2.4c-0.4,1.1-0.9,2.3-1,3.4c-0.1,3-0.1,5.9,0,8.9
		c0,5.8-1.3,12.3,7.8,13.7c-0.3,0.3-0.6,0.7-1,1c-8.7,0-17.5,0-26.2,0c0-0.3-0.1-0.5-0.1-0.8c0.7-0.3,1.3-0.8,2-0.9
		c3.2-0.7,4.8-2.7,4.8-6c0-14.1-0.1-28.3,0-42.4C480.9,188.1,477.5,186.8,474,185.4z M493.8,212.8c6.9,0.6,11-1.4,13.3-6
		c2.4-4.9,1.8-14.1-1.6-17.2c-1.6-1.5-4.1-2.2-6.3-2.8c-3.3-0.8-5.2,0.9-5.3,4.2C493.8,198.2,493.8,205.3,493.8,212.8z"/>
	<path class="st0" d="M24.1,108.2c235.4,0,470.3,0,705.2,0c0.9,2.7,0.2,4-2.6,3.7c-0.7-0.1-1.4,0-2.1,0c-231.9,0-463.7,0-695.5,0
		C26.7,111.8,23,113.3,24.1,108.2z"/>
	<path class="st0" d="M729.3,316.1c0.1,1.4,0.1,2.4,0.2,3.7c-235.3,0-470.3,0-705.3,0c-0.9-2.7-0.1-3.9,2.7-3.7c1.1,0.1,2.3,0,3.4,0
		c231,0,462,0,693,0C725.2,316.1,727.1,316.1,729.3,316.1z"/>
	<path class="st0" d="M730,391.8c-1,0.8-1.9,1.7-3,2.2c-0.7,0.3-1.7,0.1-2.5,0.1c-231.8,0-463.7,0-695.5-0.1c-2,0-5.7,1.8-5-3.3
		c235,0,470,0,705,0C729.4,391,729.7,391.4,730,391.8z"/>
	<path class="st0" d="M660.4,159c-1.2,6.2-2.4,12.4-3.8,18.6c-0.2,0.6-1.6,1.4-2.5,1.4c-14.2,0.1-28.3,0-42.4,0
		c-0.2,0-0.5-0.2-1.3-0.7c0.8-0.6,1.4-1.4,2-1.6c3.8-0.8,5.2-3.1,5.2-6.9c-0.1-13.6,0-27.1-0.1-40.7c0-4.8-2.5-7.7-6.5-7.6
		c-3.7,0.1-6.2,3-6.2,7.5c-0.1,10.2,0,20.3,0,30.5c-0.1,10.5-4.1,16.5-12.6,19.2c-10.4,3.3-22.6,0.3-27.5-7.3
		c-1.7-2.7-2.7-6.2-2.8-9.5c-0.3-10.2-0.3-20.3-0.1-30.5c0.1-5.2-0.2-9.8-6.6-11.2c9.1,0,18.1,0,27.2,0c0,0.2,0.1,0.4,0.2,0.6
		c-0.9,0.3-1.9,0.7-2.8,1c-3.2,1-4.8,3-4.8,6.5c0.1,11.2,0,22.3,0.1,33.5c0,1.8,0.4,3.6,0.9,5.4c1.9,6.2,4.7,8.6,9.9,8.6
		c6.4,0.1,11.5-2.8,13.2-8.4c1.1-3.6,1.6-7.4,1.7-11.1c0.2-7.9,0.1-15.8,0.1-23.7c0-8.6,0-8.6-8.7-12.3c16,0,30.8,0,45.6,0
		c0,0.2,0.1,0.4,0.2,0.5c-1.1,0.4-2.1,0.8-3.2,1.2c-3,0.9-4.4,2.9-4.4,5.9c0,14.3,0,28.5,0,42.8c0,3.5,1.9,4.8,5.3,5.1
		c12.5,1,16.7-5,20.9-14c0.6-1.2,1.3-2.4,2-3.6C659.1,158.5,659.8,158.8,660.4,159z"/>
	<path class="st0" d="M543.6,307.4c-6.5-16-13.1-32-20.1-49c-0.2,2.1-0.4,3-0.4,4c0,11.3,0,22.6,0,33.9c0,6.8,0,6.8,6.2,9.1
		c0.5,0.2,1,0.4,1.4,1.3c-5.8,0-11.6,0-18.7,0c2-0.9,2.9-1.3,3.9-1.6c2.7-0.9,4-2.7,4-5.7c-0.1-14.7-0.1-29.4,0-44.1
		c0-2.8-1.1-4.5-3.9-5.1c-1-0.2-1.9-0.7-2.8-1.1c0-0.4,0.1-0.8,0.2-1.2c6.1,0,12.2-0.1,18.3,0.1c0.6,0,1.4,1.5,1.8,2.5
		c5,12.3,10,24.7,15.3,38c2.5-6.1,4.6-11.6,6.8-17.1c2.8-7,5.6-14.1,8.5-21.1c0.4-0.9,1.2-2.4,1.9-2.4c6.4-0.2,12.8-0.1,19.5-0.1
		c-0.5,1.1-0.6,1.8-0.8,1.8c-6.1,0.8-6.4,4.9-6.3,9.9c0.2,11.4,0.2,22.9,0,34.3c0,5.4-0.9,11.1,7.7,11.8c-0.3,0.3-0.7,0.6-1,1
		c-8.6,0-17.3,0-25.9,0c0-0.2-0.1-0.4-0.2-0.5c0.9-0.4,1.8-0.8,2.8-1.1c2.7-0.7,3.9-2.4,3.9-5.2c0-14.3,0-28.5-0.7-43
		c-6.6,16.9-13.2,33.7-19.9,50.6C544.7,307.5,544.1,307.5,543.6,307.4z"/>
	<path class="st0" d="M689.7,279.5c0,7.1-0.2,13.9,0.2,20.6c0.1,1.6,2,3.2,3.3,4.5c0.8,0.8,2.2,0.9,3.1,2.1c-8.6,0-17.3,0-25.9,0
		c0-0.2-0.1-0.4-0.2-0.5c0.7-0.3,1.3-0.6,2-0.8c3.4-1,4.9-3,4.8-6.8c-0.2-13.7-0.2-27.4,0-41.1c0.1-4.3-0.8-7.2-5.7-7.5
		c-0.4,0-0.8-0.6-2.1-1.6c9.7,0,18.3,0,28.1,0c-1.5,1-2.1,1.7-2.8,1.8c-3.8,0.7-5,3-5,6.7c0.1,5.9,0,11.8,0,17.9
		c6.5,0,12.7,0,19.5,0c0-6.9,0.2-13.9-0.2-20.9c-0.1-1.3-2.6-2.5-4.1-3.6c-0.7-0.5-1.7-0.7-2.2-2.1c8.7,0,17.3,0,26,0
		c-0.1,0.7-0.2,1.2-0.2,1.2c-7,0.8-6.6,5.7-6.6,10.9c0.2,11.4,0,22.9,0,34.3c0,8.3,0,8.3,7.6,12c-9.6,0-18.2,0-26.8,0
		c-0.1-0.2-0.1-0.4-0.2-0.5c0.8-0.3,1.5-0.6,2.3-0.9c3.2-0.8,4.6-2.7,4.5-6.1c-0.2-6.5,0-13,0-19.7
		C702.7,279.5,696.4,279.5,689.7,279.5z"/>
	<path class="st0" d="M625.3,241.7c1-0.2,2-0.4,3-0.7c2.3-0.8,3.8-2,3.8-4.9c-0.1-15-0.1-29.9,0-44.9c0-4.8-3.8-4.7-7.2-6
		c0.7-0.6,1.1-1.2,1.5-1.2c10.7,0.2,21.6-0.7,32.1,1c15.5,2.5,24.4,17.3,21.6,32.9c-3.2,17.4-12.9,25.4-30.7,25.5
		c-6.9,0-13.9,0-20.8,0c-1.1,0-2.1-0.3-3.2-0.4C625.3,242.4,625.3,242,625.3,241.7z M644.7,213.6c0,7.1,0.1,14.1,0,21.1
		c0,3.6,1.9,5.1,5.2,5.2c6.4,0.3,12.5-3.7,14.2-9.9c2.9-10.5,3-21.2,0.1-31.7c-1.6-6.1-5.6-9.9-11.8-11.4c-5.3-1.2-7.5,0.4-7.6,5.8
		C644.6,199.8,644.7,206.7,644.7,213.6z"/>
	<path class="st0" d="M596.2,214c0,7.7-0.2,14.9,0.1,22.1c0,1.2,1.8,3.1,3.1,3.5c8.2,2.8,19.5-3,23-11.4c0.5-1.3,1.4-2.4,2.1-3.6
		c0.6,0.2,1.2,0.5,1.9,0.7c-1,5.6-2,11.1-3.2,16.7c-0.1,0.6-1.6,1.2-2.4,1.2c-14.2,0.1-28.3,0-42.5,0c-0.5,0-1.1-0.5-2.6-1.2
		c1.8-0.5,2.6-0.7,3.5-0.9c2.7-0.8,4.3-2.4,4.3-5.4c0-14.7-0.1-29.4,0-44.1c0-4.8-3.7-5.1-6.7-7.2c15,0,30,0,45.4,0
		c0,5.4,0,11,0,16.7c-0.3,0.1-0.7,0.2-1,0.3c-0.4-0.9-0.9-1.9-1.1-2.9c-1.6-7.8-6.2-11.5-14.2-11.7c-11.5-0.2-9.8,1-9.8,9.6
		c0,4.4,0,8.8,0.1,13.1c0,0.3,0.2,0.5,0.3,1c9.6,2.1,11.1-5.9,14.5-11.7c0,9.5,0,19,0,28.4C609,219.9,606,213.6,596.2,214z"/>
	<path class="st0" d="M473.4,119.8c9.4,0,18.8,0,28.2,0c2.1,0,4.3-0.2,6.3,0.3c10.4,2.5,13,8.7,13.2,16.1
		c0.3,8.2-5.8,14.4-14.7,15.7c-4.4,0.6-8.9,0.8-13.8,1.3c0,5.9-0.4,11.8,0.2,17.6c0.2,2.1,3,3.9,4.8,5.7c0.6,0.6,1.8,0.6,2.8,0.9
		c-0.1,0.4-0.1,0.7-0.2,1.1c-9,0-17.9,0-27.1,0c0.2-0.6,0.2-1.3,0.4-1.3c5.9-0.9,6.5-5,6.4-9.9c-0.2-11.6-0.2-23.2,0-34.8
		c0.1-5.5-0.1-10.3-7.4-11.4C472.9,120.7,473.1,120.3,473.4,119.8z M492.7,149.2c6.8,0.9,11-0.9,13.3-5.3c2.5-4.8,1.9-15.8-1.7-18.4
		c-2.3-1.7-5.6-2.2-8.6-2.4c-0.9-0.1-2.9,2.5-2.9,3.9C492.5,134.4,492.7,141.8,492.7,149.2z"/>
	<path class="st0" d="M474.3,306.3c0-6.2,0-13,0-21.2c1.2,1.6,1.9,2.3,2.3,3c1.6,3.2,2.9,6.7,4.9,9.8c2.8,4.4,7.1,6.8,12.4,6.8
		c4.2,0,7.3-1.9,8.8-5.9c1.5-4.2,0.5-8.4-3.3-10.8c-4.5-2.9-9.2-5.4-14-7.8c-11-5.7-12.1-19-7-26.4c3.6-5.2,11.5-7.9,18.5-6.4
		c0.7,0.1,1.4,0.4,2,0.5c6.5,1.4,6.5,1.4,11.2-0.8c0,6.1,0,12,0,17.9c-0.3,0.2-0.7,0.3-1,0.5c-0.9-1.7-1.8-3.3-2.6-5
		c-3.3-7.3-8.1-10.6-14.9-10.3c-3.3,0.1-5.6,1.4-6.9,4.6c-1.2,3-1.1,6,1.2,8.2c2.2,2.1,4.9,3.7,7.6,5.2c3.5,2.1,7.2,3.8,10.7,6
		c7.3,4.6,10.2,12.2,8,20c-2.3,8.1-8.9,13.2-17.6,12.9c-4.3-0.1-8.5-1.6-12.8-1.9C479.6,305,477.2,305.9,474.3,306.3z"/>
	<path class="st0" d="M362.1,328.6c0.3-0.2,0.6-0.7,0.9-0.7c9.7,0.1,19.5-0.1,29.2,0.7c7.4,0.6,11.3,6,11.2,13.4
		c0,7.2-3.7,11.4-11.4,12.8c-0.7,0.1-1.3,0.3-2.9,0.7c8.4,8.3,12.6,19.5,23.2,24.8c-3,2.3-11.5,1.7-13.9-1.5
		c-5.1-6.6-10-13.3-15.2-19.7c-1.2-1.5-3.4-2.3-6.2-4.1c0,7.8-0.5,14.1,0.3,20.2c0.2,2,3.6,3.7,5.7,5.7c-6.7,0-13.7,0-20.7,0
		c0-0.3-0.1-0.6-0.1-0.9c0.7-0.2,1.4-0.5,2.1-0.7c3.3-0.6,4.6-2.4,4.6-5.9c-0.2-12.3-0.1-24.6,0-36.9c0-3.9-1.1-6.3-5.3-6.6
		c-0.4,0-0.8-0.3-1.1-0.5C362.2,329.3,362.2,328.9,362.1,328.6z M376.8,353c2.8,0,4.9,0.1,7,0c6.9-0.5,10.8-4.4,11.3-10.2
		c0.9-9.9-9.5-12.9-16.5-11.6c-0.7,0.1-1.7,1.6-1.7,2.4C376.7,339.9,376.8,346.2,376.8,353z"/>
	<path class="st0" d="M563.3,178.6c-8.2,0-16.8,0-25.5,0c-0.1-0.3-0.2-0.6-0.3-0.9c0.8-0.4,1.6-0.9,2.5-1c3.7-0.4,4.4-2.6,3.5-5.7
		c-0.6-2.1-1.3-4.3-2.4-6.3c-0.5-1-1.9-2.1-2.9-2.1c-4.5-0.2-9-0.3-13.6,0c-1.1,0.1-2.2,1.5-3.1,2.5c-0.5,0.6-0.5,1.6-0.8,2.4
		c-2.2,6.8-2.2,6.8,4.4,9.5c0.3,0.1,0.4,0.7,0.8,1.6c-5.7,0-11,0-17.2,0c10-8.4,10.6-20.4,15.1-30.6c3.7-8.3,6.3-17.1,9.5-25.6
		c0.5-1.4,1.7-2.5,2.6-3.8c1,1.2,2.4,2.3,2.9,3.6c6.3,16.2,12.5,32.4,18.9,48.5C559,173.7,561.4,176,563.3,178.6z M539.3,158.4
		c-2.7-7.1-5.2-13.5-8.2-20.9c-2.6,7.6-4.8,14.1-7.1,20.9C529.3,158.4,533.9,158.4,539.3,158.4z"/>
	<path class="st0" d="M665.8,265.5c-3.7-10.8-8-14.7-17-14c0,2.9,0,5.8,0,8.7c0,12.4,0.3,24.9-0.1,37.3c-0.2,5,1.6,7.4,6.3,8.1
		c0.5,0.1,1,0.3,1.4,1.2c-9.3,0-18.6,0-28,0c0.1-0.4,0.1-0.8,0.2-0.8c7.4-2,7.6-2.3,7.6-10.1c0-13.3,0-26.5,0-39.8c0-1.5,0-3,0-4.7
		c-10.6-0.6-14.9,5.4-16.1,15c-0.4-0.3-0.8-0.5-1.2-0.8c0-5.6,0-11.2,0-17.2c15.5,0,31.3,0,46.9,0
		C665.8,254.1,665.8,259.8,665.8,265.5z"/>
	<path class="st0" d="M60.9,353.2c7.3,0,13.5,0,19.8,0c-1.8,1.4-4.1,2.4-4.9,4c-0.8,1.7-0.3,4.1-0.3,6.3c0,3.8,0.2,7.6-0.1,11.4
		c-0.1,1.2-1.1,3-2.1,3.5c-11.7,5.4-26,6.2-37.9-2.7c-12-9-11.7-31.4-0.6-41.2c8.2-7.2,17.6-8.7,28-6.8c3.5,0.6,7.2,0.1,11.3,0.1
		c0,4.9,0,10.6,0,16.3c-0.2,0.1-0.5,0.2-0.8,0.3c-0.4-0.7-1-1.3-1.3-2.1c-4.2-9.6-9.2-12.9-18.4-12.2c-7.8,0.6-15,6.9-17.2,15.2
		c-1.7,6.9-1.2,13.7,0.8,20.4c3.3,10.6,16,16.5,26.4,12.4c2.7-1,4.4-2.8,4.2-6c-0.2-3.1,0-6.2,0-9.3C68,356.1,68,356.1,60.9,353.2z"
		/>
	<path class="st0" d="M588.5,248.3c9.3,0,18.6,0,27.9,0c0.1,0.3,0.2,0.7,0.3,1c-0.8,0.3-1.7,0.9-2.5,1c-4.2,0.1-5.4,2.3-5.3,6.3
		c0.2,13.8,0.2,27.7,0,41.5c-0.1,4.4,1.4,6.6,5.6,7.3c0.7,0.1,1.4,0.6,2,1.5c-9.3,0-18.7,0-28,0c0-0.2-0.1-0.5-0.1-0.7
		c0.8-0.2,1.6-0.5,2.5-0.7c3.7-0.9,5.6-2.9,5.5-7.1c-0.2-13.3-0.1-26.5-0.1-39.8c0-6.7,0-6.7-6.7-8.4c-0.5-0.1-0.8-0.6-1.3-0.9
		C588.3,248.9,588.4,248.6,588.5,248.3z"/>
	<path class="st0" d="M341.4,381c-6.8,0-13.5,0-21.1,0c7-4.1,6.8-4,4.2-11.3c-1.5-4.3-3.5-6.5-8.4-5.8c-3.6,0.5-7.4,0.3-11,0
		c-3.2-0.3-5.1,0.7-6,3.8c-0.2,0.7-0.6,1.3-0.9,1.9c-2.9,7-2.8,7.3,4.1,11.4c-6,0-11,0-16.3,0c10.2-9.7,12.1-23.3,18-34.8
		c2.7-5.4,4.8-11.1,7.2-16.6c0.5-1,1.4-1.8,2.2-2.7c0.8,0.9,1.9,1.6,2.4,2.6c5.7,12.8,11.4,25.6,17,38.5c1,2.3,1.6,4.9,3,6.9
		C337.2,377,339.3,378.8,341.4,381z M320.6,360.6c-3.1-7.4-6-14.3-9.1-21.8c-1.9,4.4-3.4,7.8-4.8,11.3c-1.4,3.4-2.8,6.9-4.2,10.5
		C308.6,360.6,314.2,360.6,320.6,360.6z"/>
	<path class="st0" d="M136.6,328c6.8,0,13.1,0,19.4,0c0.1,0.3,0.2,0.7,0.3,1c-0.8,0.4-1.6,0.9-2.5,1c-3.7,0.6-5.3,2.7-5.2,6.4
		c0.1,8.2-0.3,16.4,0.1,24.6c0.8,17.6-11.7,22.8-25.8,20.4c-5.9-1-11.3-2.8-13.7-9c-0.7-1.9-1.2-4.1-1.2-6.1c-0.1-9.3-0.2-18.6,0-28
		c0.1-4.7-0.7-8.2-6.2-8.6c-0.3,0-0.5-0.6-1.1-1.5c7.8,0,15.1,0,22.9,0c-0.7,0.9-0.9,1.4-1.2,1.5c-6.8,2.1-6.8,2.1-6.8,9.4
		c0,8.6-0.1,17.2,0,25.8c0.1,8,4.3,12.5,12.6,13.6c6.5,0.9,13.9-3.2,15.7-8.7c0.5-1.6,0.6-3.3,0.6-5c0.1-9-0.1-18.1,0.1-27.1
		c0.1-4.6-1.3-7.4-6.2-7.7c-0.4,0-0.8-0.3-1.1-0.5C137.1,329.3,137.1,329,136.6,328z"/>
	<path class="st0" d="M437.1,381c-0.5-4.5-1.2-10.2-1.8-15.9c0.4-0.1,0.7-0.2,1.1-0.4c0.4,0.7,0.9,1.3,1.1,2
		c2.4,6.4,6.5,10.7,13.4,12.2c5,1.1,9.8-1.1,12-5.6c1.8-3.7,0.7-7.8-3.6-11c-4.6-3.4-9.6-6.4-14.5-9.4c-7.2-4.4-9-10.3-6.3-18.1
		c2.2-6.2,9.7-9.5,17.3-7.9c4.2,0.8,8.3,3.5,13-1.3c0,6.8,0,12.2,0,17.6c-0.2,0.1-0.5,0.2-0.8,0.4c-0.5-1.2-1.1-2.5-1.7-3.7
		c-2.4-5.5-6-9.5-12.4-10.1c-5.1-0.5-7.7,0.8-9.2,4.9c-1.5,3.9,0,8.4,3.7,10.7c3.5,2.2,7.1,3.9,10.5,6.2c3,2,6.2,4,8.6,6.7
		c6.2,6.8,4.4,16.6-3.7,21.1c-5.8,3.3-11.9,3.7-18.3,1.7C443.3,380.5,440.8,381,437.1,381z"/>
	<path class="st0" d="M220.6,341.2c0-4.2,0-8.5,0-13.1c14.9,0,29.9,0,45,0c0,4.5,0,8.8,0,12.7c-2.1-2.8-3.7-6.7-6.6-8.5
		c-3-1.8-7.2-1.5-11.7-2.2c0,2.4,0,3.8,0,5.3c0,12.1,0,24.3,0,36.4c0,6.6,0.1,6.7,6.6,7.7c0.4,0.1,0.7,0.4,1,0.6
		c-2.1,1.9-20,2.2-23.2,0.5c0.1-0.2,0.2-0.7,0.3-0.7c7.3-2,7.3-2,7.3-9.9c0-11.4,0-22.9,0-34.3c0-1.5,0-3,0-4.5
		C227.9,329.7,227,330.2,220.6,341.2z"/>
	<path class="st0" d="M200,380.7c-7.6,0-15.2,0-22.8,0c0-0.2-0.1-0.5-0.1-0.7c0.8-0.2,1.6-0.5,2.5-0.7c3.4-0.6,5.1-2.3,5-6
		c-0.1-11.9-0.1-23.7-0.1-35.6c0-6.3,0-6.3-6.2-7.9c-0.6-0.1-1-0.7-2.6-1.7c9,0,16.7,0,25,0c-0.7,0.9-0.9,1.4-1.2,1.4
		c-6.9,2.1-6.9,2.1-6.9,9.6c0,10,0,20,0,30.1C192.7,377.6,192.7,377.6,200,380.7z"/>
</g>
</svg>
