<?xml version="1.0" encoding="utf-8"?>
<!-- Generator: Adobe Illustrator 25.2.3, SVG Export Plug-In . SVG Version: 6.00 Build 0)  -->
<svg version="1.1" id="Capa_1" xmlns="http://www.w3.org/2000/svg" xmlns:xlink="http://www.w3.org/1999/xlink" x="0px" y="0px"
	 viewBox="0 0 750 500" style="enable-background:new 0 0 750 500;" xml:space="preserve">
<style type="text/css">
	.st0{fill:#F2F2F2;}
</style>
<g>
	<path class="st0" d="M455.9,185c-11.5,0-23,0-34.5,0c-0.9,0-1.3,0.2-1.5,1.2c-1,5.9-2.1,11.8-3.1,17.7c-1.9,10.5-3.7,21-5.5,31.5
		c-0.6,3.7-1.3,7.4-2,11.4c-0.2-0.5-0.3-0.7-0.4-0.9c-1.5-7.2-2.9-14.4-4.4-21.6c-2.6-12.7-5.2-25.4-7.8-38.1
		c-0.2-1-0.6-1.2-1.5-1.2c-11,0-22,0-33,0c-1.1,0-1.4,0.3-1.4,1.4c0,42.6,0,85.1,0,127.7c0,1.2,0.4,1.4,1.5,1.4c5.7,0,11.4,0,17.1,0
		c1.8,0,1.8,0,1.8-1.8c0-31.3,0-62.6,0-93.9c0-0.5,0-1,0-1.4c0.1,0,0.2,0,0.3,0c0.1,0.4,0.1,0.7,0.2,1.1c2.4,11.9,4.9,23.7,7.3,35.6
		c3.2,15.6,6.4,31.1,9.5,46.7c0.1,0.7,0.4,1,1.2,1c5.7,0,11.3,0,17,0c0.9,0,1.2-0.4,1.3-1.1c0.5-3.2,1.1-6.3,1.7-9.5
		c1.9-10.4,3.7-20.9,5.6-31.3c1.9-10.4,3.7-20.8,5.5-31.2c0.8-4.2,1.5-8.4,2.2-12.6c0.1,0,0.1,0,0.2,0c0,0.6,0,1.2,0,1.8
		c0,31.7,0,63.5,0,95.2c0,1.1,0.2,1.6,1.5,1.5c7-0.1,14,0,21.1,0c1.1,0,1.5-0.2,1.5-1.4c0-42.6,0-85.1,0-127.7
		C457.2,185.3,457,185,455.9,185z"/>
	<path class="st0" d="M629.1,185c-6.8,0.1-13.5,0.1-20.2,0c-1.3,0-1.7,0.3-1.7,1.7c0.1,15.6,0,31.1,0.1,46.7c0,1.4-0.4,1.7-1.7,1.7
		c-7.2-0.1-14.5-0.1-21.7,0c-1.3,0-1.7-0.3-1.7-1.6c0-15.7,0-31.3,0-47c0-1.1-0.3-1.5-1.4-1.4c-6.6,0.1-13.2,0.1-19.8,0
		c-1.3,0-1.6,0.4-1.6,1.6c0,21.2,0,42.5,0,63.7s0,42.5,0,63.7c0,1.2,0.2,1.5,1.5,1.5c6.5-0.1,13,0,19.6,0c1.8,0,1.8,0,1.8-1.8
		c0-18,0-36,0-54.1c0-1.2,0.3-1.5,1.5-1.5c7.3,0.1,14.6,0,21.9,0c1.7,0,1.7,0,1.7,1.8c0,18,0,36,0,54.1c0,1.1,0.2,1.5,1.4,1.5
		c6.8-0.1,13.7,0,20.5,0c1.1,0,1.4-0.3,1.4-1.5c0-42.6,0-85.1,0-127.7C630.5,185.3,630.2,185,629.1,185z"/>
	<path class="st0" d="M346,291.7c-1.4-8.5-2.8-17-4.2-25.5c-1.5-9-3-18.1-4.5-27.1c-1.4-8.5-2.8-17-4.2-25.5c-1.5-9-3-18.1-4.5-27.1
		c-0.2-1-0.4-1.4-1.5-1.4c-5.4,0.1-10.9,0-16.3,0c-5.4,0-10.8,0.1-16.2,0c-1.3,0-1.7,0.4-1.9,1.6c-0.6,3.5-1.3,7-1.9,10.5
		c-3.4,18.8-6.9,37.6-10.3,56.5c-3.7,20.2-7.4,40.5-11.1,60.7c-0.2,1,0.1,1.2,1,1.2c6.3,0,12.6,0,18.9,0c0.8,0,1.1-0.3,1.2-1.1
		c1.5-9.4,3.1-18.7,4.6-28.1c0.1-0.9,0.5-1.2,1.5-1.2c8,0,15.9,0,23.9,0c1,0,1.3,0.4,1.4,1.2c1.5,9.2,3,18.5,4.4,27.7
		c0.2,1,0.4,1.5,1.6,1.5c6.8-0.1,13.7-0.1,20.5,0c1.2,0,1.4-0.4,1.2-1.5C348.4,306.6,347.2,299.1,346,291.7z M317.4,263.4
		c-5.8,0-11.7,0-17.5,0c-0.9,0-0.8-0.4-0.7-1c1-5.8,1.9-11.7,2.9-17.5c1.5-9,3-18,4.5-27c0.6-3.9,1.3-7.8,1.9-11.8
		c0-0.2,0.1-0.4,0.4-0.4c0.8,4.6,1.5,9.3,2.3,14c1.4,8.7,2.8,17.4,4.2,26.1c0.9,5.6,1.8,11.1,2.7,16.7
		C318.2,263.3,318.1,263.4,317.4,263.4z"/>
	<path class="st0" d="M721.4,314.4c-0.2-0.7-0.2-1.4-0.3-2.1c-1.4-8.5-2.8-17-4.2-25.5c-1.5-9-3-18.1-4.5-27.1
		c-1.4-8.5-2.8-17-4.2-25.5c-1.5-9-3-18.1-4.5-27.1c-1.2-7-2.3-14-3.5-21c-0.1-0.7-0.3-1-1.1-1c-11.1,0-22.3,0-33.4,0
		c-0.8,0-1.1,0.3-1.2,1c-0.4,2.1-0.7,4.2-1.1,6.3c-1.9,10.7-3.9,21.3-5.8,32c-2,11.2-4.1,22.4-6.1,33.6c-2,10.6-3.9,21.3-5.9,32
		c-1.5,8.1-3,16.2-4.5,24.4c-0.2,1.2,0.1,1.4,1.2,1.4c5.9,0,11.9,0,17.8,0c1.9,0,1.9,0,2.2-1.9c1.5-9.1,3-18.2,4.5-27.2
		c0.2-0.9,0.5-1.2,1.3-1.2c8,0,16,0,24,0c0.9,0,1.2,0.2,1.4,1.2c1.5,9.3,3,18.6,4.5,28c0.2,1.1,0.7,1.2,1.6,1.2c3.4,0,6.8,0,10.2,0
		c3.5,0,7.1,0,10.6,0C721.3,315.5,721.7,315.4,721.4,314.4z M688.7,263.5c-5.6,0-11.2,0-16.8,0c-1,0-1.2-0.3-1-1.3
		c1.8-10.7,3.6-21.4,5.3-32.1c1.4-8.1,2.7-16.3,4.1-24.4c0.1,0,0.2,0,0.2,0c0.5,3.3,1.1,6.6,1.6,9.9c1.3,8.2,2.6,16.3,4,24.5
		c1.2,7.4,2.4,14.9,3.6,22.3C689.9,263.2,689.6,263.5,688.7,263.5z"/>
	<path class="st0" d="M542.8,281.9c-2.6-15.9-5.2-31.8-7.9-47.7c-2.6-16-5.3-32-7.9-48c-0.2-1.1-0.6-1.2-1.5-1.2
		c-5.4,0-10.9,0-16.3,0c-5.5,0-11,0-16.4,0c-0.9,0-1.4,0.1-1.5,1.2c-0.1,1.4-0.5,2.8-0.8,4.1c-2,10.7-3.9,21.4-5.9,32.1
		c-1.9,10.6-3.9,21.2-5.8,31.8c-2,10.7-3.9,21.4-5.9,32.1c-1.7,9.4-3.4,18.8-5.2,28.2c-0.1,0.7,0.1,0.9,0.7,0.9c6.5,0,13,0,19.4,0
		c0.6,0,0.9-0.2,1-0.8c0.7-4.3,1.4-8.6,2.1-13c0.9-5.1,1.7-10.2,2.5-15.4c0.1-0.8,0.4-1.2,1.3-1.2c8.1,0,16.1,0,24.2,0
		c0.8,0,1.1,0.3,1.2,1c0.3,1.8,0.6,3.7,0.9,5.5c1.2,7.5,2.5,15.1,3.6,22.6c0.2,1,0.6,1.3,1.6,1.3c6.8,0,13.6-0.1,20.4,0
		c1.3,0,1.5-0.5,1.3-1.6C546.4,303.3,544.6,292.6,542.8,281.9z M515.7,263.5c-5.7,0-11.3,0-17,0c-1.1,0-1.1-0.5-1-1.3
		c0.8-4.5,1.5-9.1,2.3-13.6c1.5-8.9,3-17.9,4.5-26.9c0.8-5.1,1.7-10.2,2.5-15.2c0-0.3,0.1-0.5,0.2-0.8c0.1,0,0.1,0,0.2,0
		c2.3,14.2,4.6,28.4,6.9,42.7c0.8,4.7,1.5,9.4,2.3,14C516.7,263.2,516.5,263.5,515.7,263.5z"/>
	<path class="st0" d="M276.2,186.5c0.4-1.1,0.4-1.5-1-1.5c-6.2,0.1-12.3,0.1-18.5,0c-1,0-1.5,0.3-1.8,1.3
		c-4.3,12.9-8.7,25.7-13.1,38.6c-1.2,3.5-2.4,7-3.7,10.9c-0.3-0.8-0.4-1.1-0.5-1.4c-4.9-16-9.8-32-14.7-48c-0.3-1-0.7-1.4-1.9-1.4
		c-6.7,0.1-13.3,0.1-20,0c-1.1,0-1.4,0.2-1,1.3c8.2,25.8,16.4,51.6,24.6,77.4c0.3,0.8,0.4,1.6,0.4,2.5c0,15.9,0,31.7,0,47.5
		c0,1.8-0.3,1.7,1.8,1.7c7.3,0,14.7,0,22,0c1.2,0,1.6-0.3,1.6-1.6c0-16.7,0-33.4,0-50.1c0-0.9,0.1-1.7,0.4-2.5
		C259.3,236.4,267.7,211.4,276.2,186.5z"/>
	<path class="st0" d="M108.1,172c-43.1-0.1-78.1,35-78.2,78.2c-0.1,43.2,35,78.3,78.2,78.3c43.2,0,78.1-34.9,78.2-78.2
		C186.4,207.1,151.4,172,108.1,172z M108,325.2c-41.5-0.1-74.9-33.5-74.9-74.9c0-41.5,33.5-75,75-75c41.4,0,74.9,33.5,74.9,74.9
		C183.1,291.6,149.4,325.3,108,325.2z"/>
	<path class="st0" d="M108.1,183.8c-36.6,0-66.4,29.7-66.5,66.1c0,36.9,29.6,66.7,66.3,66.7c36.8,0,66.6-29.7,66.6-66.3
		C174.5,213.6,144.9,183.8,108.1,183.8z M155.9,234.9c-8.4,4.8-16.8,9.7-25.3,14.6c-0.4,0.2-0.8,0.5-1.3,0.8
		c1.6,0.9,3.1,1.8,4.5,2.6c3.8,2.2,6.2,5.4,7.2,9.7c1,4.4,3.9,6,8.3,4.6c1-0.3,1.8,0,2.4,0.7c3.5,4.1,6.9,8.1,10.4,12.2
		c0.4,0.5,0.8,1,0.4,1.7c-0.4,0.6-1,0.6-1.7,0.4c-5.1-1-10.3-1.9-15.4-2.9c-1.2-0.2-1.8-0.9-2.1-2.1c-0.8-4-3.9-5.8-7.8-4.6
		c-4.5,1.4-8.7,0.9-12.6-1.5c-1-0.6-2.1-1.2-3.2-1.8c-0.9-0.6-1.1-0.3-1.1,0.7c0,3.6,0,7.2,0,10.9c0,6.2,0,12.3,0,18.5
		c0,1-0.2,1.5-1.4,1.4c-1.3-0.1-2.7-0.1-4.1,0c-1.2,0.1-1.6-0.2-1.6-1.5c0.1-8.6,0-17.3,0-25.9c0-1.9-0.2-3.7,0-5.6
		c0.2-2.2-0.4-3.6-2.6-4.5c-0.9-0.4-1.4-0.4-2.3,0c-2,0.9-2.6,2.1-2.6,4.4c0.2,10.5,0,21,0.1,31.5c0,1.4-0.4,1.8-1.8,1.7
		c-1.3-0.1-2.6-0.1-3.9,0c-1.1,0.1-1.4-0.3-1.4-1.4c0-8.7,0-17.4,0-26.1c0-1,0-2.1,0-3.1c0.1-1.1-0.1-1.5-1.2-0.7
		c-1.2,0.8-2.5,1.5-3.8,2.2c-3.7,2-7.5,2.5-11.5,1.2c-4.4-1.3-7.2,0.3-8.3,4.8c-0.2,1-0.7,1.6-1.6,1.7c-5.4,1-10.8,2-16.2,3.1
		c-0.5,0.1-1-0.1-1.3-0.5c-0.3-0.5-0.2-1,0.2-1.5c3.6-4.2,7.2-8.4,10.8-12.6c0.6-0.7,1.3-0.8,2.2-0.5c4.4,1.4,7.3-0.3,8.3-4.8
		c0.9-4,3.2-7.1,6.8-9.3c1.6-1,3.3-1.9,5-2.9c-4.7-2.7-9.3-5.4-13.9-8c-4.2-2.4-8.4-4.9-12.7-7.3c-0.8-0.5-1.1-0.8-0.5-1.7
		c0.8-1.2,1.6-2.5,2.2-3.9c0.5-1,0.9-0.9,1.8-0.4c9.6,5.6,19.2,11.1,28.8,16.7c0.9,0.6,1.7,0.7,2.5,0c0,0,0.1,0,0.1-0.1
		c0.7-0.5,1.9-0.7,2.2-1.5c0.3-1.2,0.1-2.5,0.1-3.8c0-0.7-0.7-0.8-1.2-1c-9.5-5.5-19-11-28.6-16.5c-1.1-0.6-1.4-1.1-0.6-2.2
		c0.8-1.1,1.5-2.4,2.1-3.6c0.4-0.8,0.8-0.9,1.6-0.4c5.5,3.2,11,6.4,16.6,9.6c3.3,1.9,6.6,3.8,10.1,5.8c0-1.6,0-2.9,0-4.3
		c-0.1-5,1.5-9.2,5.3-12.6c2.7-2.5,2.6-6.3-0.2-8.7c-1.2-1-1.3-2-0.8-3.3c1.7-4.8,3.4-9.5,5.1-14.3c0.2-0.7,0.5-1.5,1.4-1.5
		c0.9,0,1.1,0.8,1.4,1.5c1.7,4.8,3.4,9.6,5.1,14.4c0.4,1.3,0.3,2.2-0.8,3.1c-2.9,2.5-3,6.3-0.2,8.9c3.5,3.2,5.2,7.2,5.2,11.9
		c0,1.1,0,2.2,0,3.3c0,1.5,0,1.6,1.3,0.8c5.4-3.1,10.9-6.3,16.3-9.4c3-1.7,6.1-3.4,9-5.2c0.8-0.5,1.2-0.4,1.6,0.5
		c0.7,1.3,1.4,2.6,2.2,3.8c0.6,0.9,0.5,1.3-0.5,1.9c-8,4.5-15.9,9.2-23.9,13.8c-1.7,1-3.4,2-5.2,3c-0.7,0.4-1.1,0.8-0.9,1.6
		c0,0.1,0,0.2,0,0.3c0,3.2,0.3,3.7,3.2,4.9c0.6,0.3,1-0.1,1.5-0.3c9.6-5.5,19.2-11.1,28.8-16.6c1-0.6,1.6-0.7,2.1,0.5
		c0.6,1.3,1.3,2.5,2.1,3.6C157,234.1,156.7,234.5,155.9,234.9z"/>
	<path class="st0" d="M95.5,255.3c-0.3-0.2-0.6-0.3-0.8-0.5c-0.6-0.5-1.2-0.4-1.8,0c-2.6,1.6-5.2,3-7.8,4.6
		c-2.2,1.3-2.8,3.3-1.8,5.2c1.1,1.9,3.3,2.4,5.4,1.2c2.3-1.3,4.6-2.7,6.9-4c1.4-0.7,2.2-1.6,1.8-3C97.3,255.9,97.8,256.7,95.5,255.3
		z"/>
	<path class="st0" d="M122.3,254.4c-1.1,0.6-2.3,1.1-3.3,1.9c-0.7,0.5-0.2,1.5-0.3,2.3c0.3,0.8-0.5,1.9,0.8,2.6
		c2.8,1.5,5.5,3.1,8.2,4.7c0.9,0.5,1.8,0.8,2.9,0.4c1.6-0.5,2.6-1.5,2.8-3.2c0.2-1.7-0.6-2.9-2-3.7c-2.7-1.6-5.5-3.2-8.2-4.8
		C122.9,254.5,122.6,254.2,122.3,254.4z"/>
	<path class="st0" d="M104.6,235.9c1.1,0.7,2.1,1.4,3.3,1.9c0.8,0.3,1.4-0.7,2.1-0.9c1.4-0.5,1.9-1.5,1.8-3c-0.1-1.2,0-2.4,0-3.7
		c0-1.6,0-3.3,0-4.9c0-2.1-1.6-3.7-3.7-3.7c-2.1,0-3.7,1.6-3.7,3.7c0,3.2,0,6.4,0,9.6C104.4,235.3,104.2,235.7,104.6,235.9z"/>
	<path class="st0" d="M112.3,250.3c-0.2-0.9,0.5-2-0.4-2.6c-1.2-0.9-2.6-2.1-3.9-2c-1.3,0-2.7,1.3-4,2.1c-0.6,0.4-0.3,1.1-0.2,1.6
		c0.1,1.2-0.6,2.7,0.3,3.5c1.1,1,2.5,2.2,3.9,2.1c1.3-0.1,2.7-1.2,3.9-2.1C112.8,252.3,112.2,251.1,112.3,250.3z"/>
</g>
</svg>
