<?xml version="1.0" encoding="iso-8859-1"?>
<!-- Uploaded to: SVG Repo, www.svgrepo.com, Generator: SVG Repo Mixer Tools -->
<svg fill="#000000" height="500px" width="500px" version="1.1" id="Capa_1" xmlns="http://www.w3.org/2000/svg" xmlns:xlink="http://www.w3.org/1999/xlink" 
	 viewBox="0 0 512 512" xml:space="preserve">
<g>
	<g>
		<path d="M491.243,55.35H20.757C9.294,55.35,0,64.644,0,76.107v83.027c0,11.463,9.294,20.757,20.757,20.757h50.258l149.37,107.13
			L36.335,419.022c-9.316,6.681-11.451,19.65-4.77,28.965c4.053,5.653,10.421,8.662,16.885,8.662c4.189,0,8.416-1.265,12.079-3.893
			l195.469-140.195l195.471,140.195c3.663,2.626,7.89,3.893,12.079,3.893c6.462,0,12.832-3.011,16.885-8.662
			c6.681-9.314,4.544-22.283-4.77-28.965L291.615,287.019l149.368-107.13h50.26c11.463,0,20.757-9.293,20.757-20.757V76.105
			C512,64.644,502.707,55.35,491.243,55.35z M255.999,261.477l-113.754-81.586h227.508L255.999,261.477z M41.513,138.378V96.863
			h428.973v41.514H41.513z"/>
	</g>
</g>
</svg>