<?xml version="1.0" encoding="utf-8"?>
<!-- Generator: Adobe Illustrator 25.2.3, SVG Export Plug-In . SVG Version: 6.00 Build 0)  -->
<svg version="1.1" id="Capa_1" xmlns="http://www.w3.org/2000/svg" xmlns:xlink="http://www.w3.org/1999/xlink" x="0px" y="0px"
	 viewBox="0 0 1752 213" style="enable-background:new 0 0 1752 213;" xml:space="preserve">
<style type="text/css">
	.st0{fill:#FFFFFF;stroke:#FFFFFF;stroke-miterlimit:10;}
	.st1{fill:#FFFFFF;}
</style>
<g>
	<path class="st0" d="M24.86,94.1c-3.96,3.02-10.37,6.97-14.33,6.97c-3.02,0-5.84-1.7-8.29-4.9c-1.51-1.89-2.26-4.15-2.26-6.6
		c0-6.6,5.84-15.08,17.53-25.82c13.01-11.88,29.97-23.56,51.08-34.87c21.3-11.31,38.64-17.53,51.46-20.92
		c12.25-3.21,17.53-3.77,21.49-3.77c25.26,0,23.56,21.3,19.41,45.24c-2.26,15.27-5.84,24.13-6.79,26.96c2.26-0.94,4.9-1.7,7.73-2.64
		c5.84-1.7,15.46-3.96,19.79-5.28c5.84-2.26,9.05,1.7,10.37,5.84c0.38,0.94,0.56,1.88,0.56,2.83c0,4.52-3.39,9.43-6.41,10.18
		c-19.98,3.77-32.8,7.35-38.45,10.56c-0.57,1.7-2.45,7.54-5.84,17.15c-6.41,19.23-23.94,59.76-33.18,79.17
		c-2.83,5.84-4.34,11.12-10.56,13.01c-2.26,0.75-5.47,1.13-9.42,1.13c-7.73,0-14.14-1.51-14.14-4.33c0-1.13,2.26-6.03,6.6-14.89
		c4.33-8.86,9.99-20.92,16.96-36c6.97-15.27,12.82-29.59,17.53-43.17l-13.01,6.97c-2.26,0.94-5.65,2.26-8.48,2.26h-0.57
		c-2.83,0-4.34-1.7-4.34-4.9c0-3.58,2.07-9.61,4.52-12.25c3.58-2.45,7.54-4.9,12.25-7.16c9.24-4.71,16.21-7.35,17.15-8.67
		c5.84-15.08,7.35-19.41,11.69-46.37c0.94-5.84-3.39-8.86-10.37-8.86c-7.54,0-15.65,2.26-24.13,6.79
		c-5.84,3.02-10.93,5.84-15.65,8.67l-11.12,6.6c-2.64,1.7-6.03,4.15-10.18,7.54l-8.11,6.41c-1.13,0.94-4.52,3.96-9.99,9.05
		l-10.93,9.61L24.86,94.1z"/>
	<path class="st0" d="M184.89,159.18c8.1,0,15.27,3.39,15.27,8.86c0,0.57,0,1.13-0.19,1.51c-2.45,12.25-11.31,19.98-26.77,23.37
		c-0.38,0.19-0.94,0.19-1.7,0.19c-5.28,0-9.99-6.22-9.99-12.25c0-1.13,0.19-2.07,0.38-2.64c2.26-9.05,8.48-16.21,17.72-18.47
		C181.31,159.37,183.19,159.18,184.89,159.18z M235.98,3.67c2.45,0,3.58,1.51,3.58,4.34c0,3.58-0.75,7.92-2.26,13.01
		c-0.94,3.2-6.6,19.6-17.15,48.82c-10.37,29.22-16.4,48.07-18.1,56.17c-0.94,5.47-3.96,10.37-9.05,14.7
		c-5.09,4.33-9.42,6.6-13.01,6.6c-0.57,0-1.13-0.19-1.88-0.38c-2.45-1.13-3.77-3.58-3.77-7.16c0-1.51,0.19-3.2,0.56-4.9
		c0.75-5.09,5.28-23.56,13.38-55.04s12.63-51.08,13.38-58.62c0.75-6.97,4.52-11.69,11.31-13.76c6.97-2.26,10.18-2.64,18.28-3.39
		L235.98,3.67z"/>
	<path class="st0" d="M361.14,171.77c2.83-0.38,6.6-1.89,11.69-4.52c5.09-2.83,8.48-4.15,10.56-4.15c1.7,0,3.02,0.57,4.15,1.7
		c2.45,2.45,3.58,5.09,3.58,7.92c0,4.15-1.89,8.11-5.66,11.88c-5.47,5.84-15.46,10.18-29.59,12.82c-2.83,0.57-6.03,0.75-9.61,0.75
		c0,0-0.38,0-1.32,0c-2.26,0-5.47-0.19-9.42-0.75c-3.02-0.57-5.28-1.32-6.79-2.26c-0.94-0.75-1.7-1.32-2.07-1.89
		c0,0-0.38-0.56-1.13-1.7c0-0.19-0.75-1.32-0.75-1.51l-4.9,2.26c-2.45,1.32-4.52,2.07-5.84,2.64c-1.7,0.75-3.96,1.51-6.97,2.07
		c-3.77,0.57-7.35,0.94-10.56,0.94c-2.45,0-4.71-0.19-6.97-0.57c-3.96-0.57-7.54-1.89-10.74-3.58c-4.71-2.45-8.67-6.03-11.5-10.74
		c-2.26-3.58-3.96-7.54-4.9-11.88c-2.07,2.45-5.84,5.47-11.31,9.05c-5.28,3.58-10.37,6.03-15.27,7.73
		c-1.51,0.75-3.39,1.13-5.84,1.13c-5.28,0-7.92-3.02-8.11-9.05v-0.19c0-3.77,2.07-7.35,5.84-10.56c1.88-1.7,3.58-2.83,4.9-3.77
		c1.32-0.94,3.02-2.07,5.28-3.39c2.07-1.32,3.21-2.07,3.39-2.07c5.65-3.58,11.12-9.05,16.59-16.4c5.47-7.35,9.61-13.76,12.44-19.23
		c3.39-6.6,7.54-12.44,12.25-17.34c4.9-4.9,10.18-9.05,15.83-12.25c5.09-2.83,9.99-4.52,14.51-5.47c1.13-0.19,2.83-0.38,5.28-0.38
		c2.83,0,5.28,0.19,7.35,0.75c3.2,0.75,7.16,2.07,11.5,4.15c0.75,0.19,3.02,1.7,3.96,1.88c0.19,0.19,0.57,0.19,0.94,0.19h1.13
		c0.19,0,0.75-0.38,0.94-0.56l0.75-0.57c0.57-0.75,0.94-1.32,1.32-1.51c0.19,0,1.13-0.38,1.32-0.57h1.51
		c1.32,0.19,3.2,0.57,6.03,1.32c2.26,0.57,3.96,1.32,5.28,2.07c3.2,1.7,5.65,3.2,7.16,4.33c1.13,0.94,2.26,1.89,3.39,3.21
		c1.32,1.7,2.26,3.39,2.64,5.09v1.51c0,1.51-0.19,3.02-0.75,4.34c-0.75,1.89-2.07,4.52-3.96,7.73c-1.7,3.21-3.02,5.47-3.58,6.79
		c-3.2,6.79-5.65,13.95-7.35,21.3c-1.32,5.47-1.88,9.8-1.88,12.63c0,2.26,0.19,4.15,0.75,5.66c0.57,2.07,1.88,3.02,3.96,3.02H361.14
		z M321.36,119.74c-1.7,0.19-3.2,0.75-4.52,1.51c-1.32,0.57-2.64,1.51-3.96,2.64c-2.45,1.7-4.71,3.77-6.97,6.6
		c-5.66,6.6-9.24,13.38-10.93,20.36c-0.38,1.51-0.57,3.02-0.57,4.71c0,0.94,0,1.7,0.19,2.26c0.56,2.64,1.32,4.71,2.64,6.22
		c0.94,1.13,2.45,2.26,4.52,3.2c0.57,0.19,1.7,0.38,3.02,0.38c1.13,0,1.89,0,2.45-0.19c4.52-0.57,8.86-3.02,12.82-7.35
		c2.07-2.26,3.39-3.96,4.15-5.09c1.7-2.26,5.65-13.2,5.84-28.28c0-2.45-2.83-5.47-4.15-6.03c-0.75-0.57-1.88-0.94-3.39-0.94H321.36z
		"/>
	<path class="st0" d="M480.26,112.2c3.39-4.52,6.03-7.73,8.11-9.61c2.07-2.07,5.09-4.15,9.24-6.22c7.35-3.96,13.2-5.84,17.72-5.84
		c5.84,0,10.93,3.02,14.89,8.86c2.45,3.58,4.15,8.11,5.09,13.57c0.38,3.58,0.57,7.16,0.57,10.93c0,6.79-0.57,15.08-1.7,24.69
		c-0.94,9.61-1.51,14.7-1.51,15.65s0,1.32,0.19,1.51c0.57,2.45,2.07,3.58,4.34,3.58c0.94,0,1.88-0.19,2.83-0.75
		c8.1-3.96,13.38-6.03,16.02-6.03c1.7,0,2.83,0.38,3.58,1.32c2.45,2.64,3.77,5.47,3.77,8.48c0,5.84-4.34,11.31-12.82,16.4
		c-8.48,5.09-15.46,7.54-21.11,7.73c-1.32,0.19-3.02,0.19-5.47,0.19c-18.28,0-28.09-9.43-28.09-21.3c0-1.51,0-2.83,0.19-3.77
		c0-0.19,0.19-3.58,0.57-9.8c0.38-6.41,0.57-11.12,0.57-14.33c0-3.58-0.19-5.28-0.57-5.28c-0.19,0-0.19,0-0.38,0.19l-17.91,21.87
		c-10.74,13.38-19.6,23.37-26.39,29.97c-4.15,3.96-9.8,5.84-17.15,5.84c-7.54,0-13.19-2.45-16.78-7.54c-1.13-1.51-1.7-3.96-1.7-7.16
		c0-3.39,0.75-8.29,2.45-14.7c1.7-6.41,2.45-10.18,2.45-11.12c0-0.94-0.19-1.32-0.57-1.32c-0.19-0.19-0.38-0.19-0.56-0.19
		c-1.7,0-6.6,5.28-12.44,11.31c-5.47,6.03-15.65,13.76-24.88,17.53c-3.39,1.32-6.22,1.88-8.48,1.88c-3.39,0-6.03-1.51-7.73-4.52
		c-0.57-1.7-0.94-3.2-0.94-4.52c0-5.09,3.02-9.61,9.05-13.38c6.03-3.39,12.06-7.73,18.29-12.82c6.22-5.28,11.5-9.99,15.46-14.14
		c8.11-8.29,19.6-16.4,30.73-18.47c0.57-0.19,1.51-0.19,2.45-0.19c16.02,0,14.7,19.6,17.34,19.6c0.19,0,0.38,0,0.57-0.19
		c1.32-1.32,3.39-3.96,6.22-7.73l8.86-12.44L480.26,112.2z"/>
	<path class="st0" d="M670.83,156.12c0,5.47,0,9.8-3.58,18.1c-1.7,4.15-4.15,7.73-7.16,10.74c-5.84,5.84-18.1,10.93-34.5,10.93
		c-3.58,0-7.35-0.19-11.5-0.57c-6.03-2.07-11.5-4.9-16.4-8.67c-4.71-3.77-7.16-7.92-7.16-12.25c0-2.07,0.57-3.96,1.7-6.03
		c2.26-3.2,4.52-4.9,6.79-4.9c1.7,0,4.71,1.88,9.42,5.65c4.71,3.77,8.86,5.66,12.63,5.66h1.13c6.79,0,12.44-5.84,15.27-14.14
		c0.56-2.07,0.94-3.96,0.94-5.28c0-3.77-1.32-7.16-3.96-10.18c-2.64-3.02-6.41-6.22-11.12-9.43c-4.71-3.39-7.92-6.22-9.99-8.29
		c-1.89,5.84-4.71,11.69-8.48,17.34c-1.32,1.89-5.84,6.6-13.76,14.14c-7.73,7.35-14.51,13.38-20.17,18.1
		c-3.02,2.83-6.97,5.47-11.87,8.11c-4.9,2.45-9.24,3.77-13.01,3.77c-3.58,0-6.03-1.32-7.35-4.15c-0.75-1.51-1.13-3.02-1.13-4.52
		c0-6.6,6.22-13.01,18.47-19.04c6.03-3.02,13.01-9.99,20.92-20.92c8.11-11.12,13.57-21.68,16.4-31.67c0.19-0.38,0.19-0.94,0.19-1.7
		c0-1.7-0.94-5.09-2.83-9.8c-1.7-4.9-2.83-8.86-3.02-11.69v-2.07c0-6.03,1.32-11.88,3.96-17.34c2.83-5.47,6.22-8.29,10.56-8.29
		c1.32,0,2.45,0.19,3.58,0.75c6.03,2.64,10.37,7.73,12.82,15.08c2.64,7.35,3.96,14.7,3.96,22.05c0,1.7-0.19,3.39-0.38,4.9
		c2.64,2.26,7.35,5.66,13.95,10.37c6.6,4.71,12.25,8.67,16.59,12.25c4.52,3.39,8.67,7.92,12.44,13.57
		c3.77,5.47,5.66,11.12,5.66,16.97V156.12z"/>
	<path class="st0" d="M768.84,138.02c0,5.84-0.19,8.86-5.28,12.25c-5.09,2.83-11.12,5.09-18.1,6.79
		c-13.76,3.02-23.75,4.34-26.58,8.67c-0.38,0.75-0.57,1.32-0.57,1.88c0,3.21,6.22,5.28,13.76,5.28c2.83,0,5.47-0.38,7.73-0.94
		c21.68-5.84,35.25-12.06,47.31-23.94c0.94-0.94,2.83-1.51,5.28-1.51c5.28,0,12.44,2.26,12.44,5.84c0,3.96-3.77,9.8-11.12,17.72
		c-7.35,7.73-13.76,13.01-19.42,15.83c-16.02,7.73-33.55,11.5-52.59,11.5c-23.94,0-36.95-6.97-39.4-20.74
		c-0.19-0.56-0.19-1.7-0.19-3.02c0-7.35,5.28-15.08,12.25-20.36s13.19-8.67,17.91-10.37h0.19c1.13-0.19-16.59-2.26-23.75-6.98
		c-7.35-4.33-10.93-10.56-10.93-18.66c0-5.09,1.7-9.24,4.9-12.63c6.79-7.35,17.15-11.69,22.43-13.01c2.64-0.57,7.54-1.32,14.51-2.07
		l13.76-1.7c3.39-0.57,8.29-0.94,14.51-1.32c12.82-0.75,24.13-2.64,42.22-8.48h0.19c0.19,0,0.38,0.19,0.38,0.75
		c0,1.13-0.57,3.2-1.51,6.41c-0.94,3.2-2.26,6.97-3.77,11.31c-1.51,4.34-2.64,7.92-3.2,10.37c-1.51,3.58-3.96,5.28-6.98,6.97
		c-1.51,0.75-5.47,1.51-7.16,1.7l-8.67,1.13c-3.39,0.38-6.6,0.57-9.42,0.57c-2.64,0-6.03-0.19-10.37-0.38
		c-4.34-0.38-7.35-0.57-9.05-0.57c-5.09,0-9.61,0.94-13.19,2.64c-0.94,0.57-1.32,0.94-1.32,1.51c0,1.13,2.45,2.26,7.35,3.2
		c4.9,0.94,11.5,1.89,19.98,2.83c8.48,0.94,14.89,1.88,19.04,2.64c4.34,0.75,6.41,2.26,6.41,4.71V138.02z"/>
	<path class="st0" d="M867.61,112.2c3.39-4.52,6.03-7.73,8.11-9.61c2.07-2.07,5.09-4.15,9.24-6.22c7.35-3.96,13.19-5.84,17.72-5.84
		c5.84,0,10.93,3.02,14.89,8.86c2.45,3.58,4.15,8.11,5.09,13.57c0.38,3.58,0.56,7.16,0.56,10.93c0,6.79-0.56,15.08-1.7,24.69
		c-0.94,9.61-1.51,14.7-1.51,15.65s0,1.32,0.19,1.51c0.57,2.45,2.07,3.58,4.34,3.58c0.94,0,1.89-0.19,2.83-0.75
		c8.11-3.96,13.38-6.03,16.02-6.03c1.7,0,2.83,0.38,3.58,1.32c2.45,2.64,3.77,5.47,3.77,8.48c0,5.84-4.34,11.31-12.82,16.4
		c-8.48,5.09-15.46,7.54-21.11,7.73c-1.32,0.19-3.02,0.19-5.47,0.19c-18.29,0-28.09-9.43-28.09-21.3c0-1.51,0-2.83,0.19-3.77
		c0-0.19,0.19-3.58,0.57-9.8c0.38-6.41,0.56-11.12,0.56-14.33c0-3.58-0.19-5.28-0.57-5.28c-0.19,0-0.19,0-0.38,0.19l-17.91,21.87
		c-10.74,13.38-19.6,23.37-26.39,29.97c-4.15,3.96-9.8,5.84-17.15,5.84c-7.54,0-13.19-2.45-16.78-7.54c-1.13-1.51-1.7-3.96-1.7-7.16
		c0-3.39,0.75-8.29,2.45-14.7c1.7-6.41,2.45-10.18,2.45-11.12c0-0.94-0.19-1.32-0.56-1.32c-0.19-0.19-0.38-0.19-0.57-0.19
		c-1.7,0-6.6,5.28-12.44,11.31c-5.47,6.03-15.64,13.76-24.88,17.53c-3.39,1.32-6.22,1.88-8.48,1.88c-3.39,0-6.03-1.51-7.73-4.52
		c-0.57-1.7-0.94-3.2-0.94-4.52c0-5.09,3.02-9.61,9.05-13.38c6.03-3.39,12.06-7.73,18.28-12.82c6.22-5.28,11.5-9.99,15.46-14.14
		c8.1-8.29,19.6-16.4,30.73-18.47c0.57-0.19,1.51-0.19,2.45-0.19c16.02,0,14.7,19.6,17.34,19.6c0.19,0,0.38,0,0.57-0.19
		c1.32-1.32,3.39-3.96,6.22-7.73l8.86-12.44L867.61,112.2z"/>
	<path class="st0" d="M1031.79,47.73c0-2.07-0.94-3.02-2.64-3.02c-5.09,0-17.53,7.92-37.51,23.56c-2.07,1.7-4.52,2.45-7.35,2.45
		c-4.71,0-8.29-1.89-10.74-5.47c-1.89-2.45-2.83-5.09-2.83-7.92c0-4.34,1.7-7.73,5.09-10.18c12.63-9.8,24.5-17.72,35.25-23.56
		c10.74-5.84,22.43-9.8,35.44-11.69c2.26-0.38,4.34-0.57,6.41-0.57c7.73,0,12.82,3.58,15.46,10.74c0.94,2.26,1.32,5.09,1.32,8.67
		v1.51c-1.13,14.51-5.47,35.25-13.19,61.83c-7.54,26.58-12.25,44.67-14.33,54.29c0.19-0.38,1.51-3.77,4.34-9.99
		c2.83-6.22,6.03-13.01,9.61-20.17c3.77-7.35,8.48-15.83,14.14-25.82c11.31-19.79,29.03-45.05,48.63-67.86
		c5.47-5.84,12.06-8.86,19.42-8.86c6.03,0,11.31,1.88,16.02,5.65c4.71,3.77,6.97,8.11,6.97,12.82c0,9.8-4.34,29.97-13.01,60.51
		c-8.67,30.54-13.01,48.26-13.01,53.35c0,0.75,0.19,1.7,0.38,2.64c0.57-1.32,3.02-5.66,7.35-13.38l10.74-19.6l12.06-21.11
		c10.37-17.53,17.91-29.41,27.14-43.17c9.61-13.76,17.91-23.37,24.13-27.9c4.71-3.39,9.42-5.09,13.95-5.09
		c7.35,0,14.33,4.71,18.66,11.31c4.52,6.22,7.16,11.5,8.11,15.27v2.64c0,7.35-2.07,18.28-6.22,32.8
		c-3.96,14.52-8.29,30.73-13.01,48.82c-4.52,17.91-7.16,34.31-7.92,49.2c-0.57,6.79-7.35,14.52-15.83,16.97
		c-6.03,1.7-10.74,2.64-13.95,2.64c-6.03,0-9.61-2.83-10.93-8.29c-0.19-2.26-0.38-4.15-0.38-5.65c0-9.24,2.26-21.87,6.79-38.27
		c4.52-16.4,9.43-32.23,14.52-47.88c5.28-15.65,8.29-25.45,9.05-29.78c-5.84,5.09-17.53,22.43-35.44,52.4
		c-17.91,29.97-28.84,50.52-32.99,61.83c-3.77,8.86-15.27,13.38-28.27,13.38c-1.32,0-3.39-0.19-6.22-0.38
		c-10.56-1.32-16.4-6.03-16.4-18.66c0-21.87,3.58-43.36,7.35-56.74c2.07-6.79,4.52-15.27,7.35-25.26
		c2.83-10.18,5.09-19.23,6.79-27.14c-8.48,8.86-16.4,19.04-23.94,30.91c-7.35,11.69-13.38,22.43-18.1,32.05
		c-4.52,9.61-9.99,20.17-16.4,31.29c-6.41,11.12-12.82,20.55-19.04,27.9c-5.09,4.34-12.44,6.41-22.05,6.41
		c-2.07,0-5.28-0.19-9.61-0.75c-8.11-1.32-11.87-7.54-11.87-14.51c0-1.89,0.19-3.39,0.56-4.71c3.58-14.51,7.92-30.35,12.82-47.69
		c4.9-17.34,8.48-30.91,10.93-40.9c2.26-9.99,4.15-20.55,5.47-31.67l0.94-8.67V47.73z"/>
	<path class="st0" d="M1297.56,108.24l1.13-6.98c2.45-7.35,7.16-11.69,13.95-13.01c1.51-0.38,3.02-0.57,4.52-0.57
		c6.22,0,10.18,2.45,11.88,7.16c0.57,2.07,0.94,3.96,0.94,5.28c0,1.88-0.38,4.15-1.13,6.79c-1.32,5.28-4.9,16.78-7.16,26.01
		c-2.45,9.61-3.58,16.97-3.58,22.24c0,7.54,2.64,11.31,7.73,11.31c3.96,0,7.54-0.38,10.37-2.07c2.83-2.07,4.71-2.45,6.41-5.65
		c2.07-3.58,2.64-3.58,4.15-8.67l1.7-4.9l1.51-5.84l1.51-6.03c0.57-1.32,1.7-5.84,3.39-13.38c3.77-15.08,7.92-28.65,11.12-30.91
		c2.07-0.75,4.52-1.13,6.97-1.13c8.3,0,16.02,4.15,16.97,11.87c0.19,0.57,0.19,1.13,0.19,2.07c0,3.58-2.26,12.25-6.6,26.2
		c-4.33,13.76-7.16,25.64-8.86,35.63v2.07c0,3.2,1.32,4.9,3.77,4.9c1.88,0,5.84-1.32,11.69-3.96c5.84-2.83,10.18-4.15,12.63-4.15
		c2.07,0,3.58,0.75,4.71,2.26c1.7,2.45,2.64,5.09,2.64,7.54c0,5.47-4.15,10.93-12.63,16.4c-10.56,6.6-25.45,10.18-36.76,10.18
		c-4.34,0-7.54-0.57-9.99-1.51c-5.47-2.64-2.45-10.37-5.65-6.03c-4.71,4.71-12.25,7.16-22.24,7.16c-9.05,0-16.96-2.45-23.94-7.35
		c-6.79-5.09-10.74-12.82-11.69-23.19c0-0.57-0.19-1.32-0.19-1.89c-4.9,4.52-10.93,9.43-17.91,14.7c-7.35,5.28-13.95,7.92-19.6,7.92
		c-3.96,0-6.22-0.94-7.16-2.64c-0.94-2.45-1.51-4.52-1.51-6.03c0-6.41,4.9-12.06,14.89-16.97c6.6-3.02,14.51-10.37,23.75-21.87
		c9.24-11.69,15.08-22.43,17.91-32.42l0.19-0.19V108.24z"/>
	<path class="st0" d="M1517.73,156.12c0,5.47,0,9.8-3.58,18.1c-1.7,4.15-4.15,7.73-7.16,10.74c-5.84,5.84-18.1,10.93-34.5,10.93
		c-3.58,0-7.35-0.19-11.5-0.57c-6.03-2.07-11.5-4.9-16.4-8.67c-4.71-3.77-7.16-7.92-7.16-12.25c0-2.07,0.57-3.96,1.7-6.03
		c2.26-3.2,4.52-4.9,6.79-4.9c1.7,0,4.71,1.88,9.43,5.65c4.71,3.77,8.86,5.66,12.63,5.66h1.13c6.79,0,12.44-5.84,15.27-14.14
		c0.56-2.07,0.94-3.96,0.94-5.28c0-3.77-1.32-7.16-3.96-10.18c-2.64-3.02-6.41-6.22-11.12-9.43c-4.71-3.39-7.92-6.22-9.99-8.29
		c-1.89,5.84-4.71,11.69-8.48,17.34c-1.32,1.89-5.84,6.6-13.76,14.14c-7.73,7.35-14.51,13.38-20.17,18.1
		c-3.02,2.83-6.97,5.47-11.87,8.11c-4.9,2.45-9.24,3.77-13.01,3.77c-3.58,0-6.03-1.32-7.35-4.15c-0.75-1.51-1.13-3.02-1.13-4.52
		c0-6.6,6.22-13.01,18.47-19.04c6.03-3.02,13.01-9.99,20.92-20.92c8.11-11.12,13.57-21.68,16.4-31.67c0.19-0.38,0.19-0.94,0.19-1.7
		c0-1.7-0.94-5.09-2.83-9.8c-1.7-4.9-2.83-8.86-3.02-11.69v-2.07c0-6.03,1.32-11.88,3.96-17.34c2.83-5.47,6.22-8.29,10.56-8.29
		c1.32,0,2.45,0.19,3.58,0.75c6.03,2.64,10.37,7.73,12.82,15.08c2.64,7.35,3.96,14.7,3.96,22.05c0,1.7-0.19,3.39-0.38,4.9
		c2.64,2.26,7.35,5.66,13.95,10.37c6.6,4.71,12.25,8.67,16.59,12.25c4.52,3.39,8.67,7.92,12.44,13.57
		c3.77,5.47,5.66,11.12,5.66,16.97V156.12z"/>
	<path class="st0" d="M1588.41,90.71c8.1-2.07,13.01-3.02,15.08-3.02c2.64,0,4.9,0.38,6.79,0.94c2.45,0.56,3.77,2.83,3.77,6.41
		c0,0.94-0.19,1.89-0.38,3.2c-1.7,7.73-5.09,17.91-9.8,30.73c-4.71,12.63-7.73,24.51-9.05,35.25c0,4.71,1.51,7.16,4.52,7.16
		c1.88,0,5.09-1.32,9.61-3.77c5.47-3.2,9.8-4.71,13.01-4.71c3.96,0,6.6,2.64,7.73,7.92c0.19,0.38,0.19,0.94,0.19,1.7
		c0,3.77-2.07,7.54-6.41,11.5c-4.34,3.77-8.67,6.41-13.38,8.11c-9.42,3.2-16.78,4.9-22.05,4.9c-6.41,0-12.82-1.7-19.04-5.28
		c-6.22-3.39-9.43-9.05-9.43-17.15c0-0.75,0.19-2.26,0.19-2.45c0.94-9.24,3.02-16.21,6.03-20.73c-8.11,9.61-19.23,19.42-32.99,29.41
		c-7.35,5.28-13.95,7.92-19.6,7.92c-3.96,0-6.22-0.94-7.16-2.64c-0.94-2.45-1.51-4.52-1.51-6.03c0-6.41,4.9-12.06,14.89-16.97
		c6.97-3.2,17.15-11.87,30.91-26.39c13.76-14.51,22.24-26.01,25.07-34.31c1.7-5.09,6.79-9.24,10.37-10.56L1588.41,90.71z
		 M1595.76,50.37c0.57-6.79,6.79-10.74,14.89-10.74c2.26,0,4.71,0.38,7.16,1.13c3.77,0.57,6.22,5.66,6.22,12.25
		c0,8.29-3.02,15.46-9.24,21.68h-1.13c-4.71,0-9.05-2.26-12.63-6.97c-3.58-4.71-5.28-9.8-5.28-15.46V50.37z"/>
	<path class="st0" d="M1677.38,157.63c0.75,4.52,2.64,16.78,31.1,16.78c6.22,0,13.57-1.88,21.87-5.47
		c8.29-3.58,13.2-5.47,14.89-5.47c2.07,0,3.58,0.94,4.9,3.02c1.32,2.07,1.89,4.34,1.89,6.79c0,4.9-2.45,9.42-7.54,13.38
		c-5.09,3.96-10.74,6.79-17.15,8.29c-12.06,3.02-23,4.52-32.99,4.52c-14.33,0-26.39-3.21-33.18-7.73c-6.6-4.52-9.42-7.16-11.12-9.99
		c-2.26-3.77-3.77-7.35-4.71-10.93c-3.96,3.39-8.11,6.79-12.63,9.99c-7.35,5.28-13.95,7.92-19.6,7.92c-3.96,0-6.22-0.94-7.16-2.64
		c-0.94-2.45-1.51-4.52-1.51-6.03c0-6.41,4.9-12.06,14.89-16.97c5.47-2.45,11.31-7.16,17.34-13.95
		c6.22-6.79,10.93-13.57,14.51-20.55c8.48-19.04,22.62-32.23,42.79-39.77c6.79-2.45,13.38-3.77,19.79-3.77
		c9.43,0,17.15,2.45,23.37,7.35c6.22,4.71,9.43,10.37,9.99,16.78v1.7c0,9.24-4.52,17.34-13.57,24.69
		c-4.52,3.58-9.99,5.47-16.59,5.47c-1.51,0-2.64,0-3.39-0.19c-3.2-0.19-6.03-5.47-6.03-7.92c0-0.56,0.75-1.88,2.26-3.96
		c1.51-2.26,2.26-3.77,2.26-4.71c0-0.57-0.38-1.51-1.32-3.02c-0.56-0.75-1.13-1.32-1.88-1.89c-1.51-0.56-2.83-0.94-3.77-0.94h-0.94
		c-1.32,0.19-2.83,0.57-4.52,1.51c-0.94,0.57-2.26,1.32-3.96,2.64c-3.2,2.83-5.65,4.9-6.97,6.6c-5.65,6.6-9.24,13.38-10.93,20.36
		c-0.38,3.02-0.56,4.52-0.56,4.71c0,0.56,0.19,1.7,0.19,2.26V157.63z"/>
</g>
<g>
	<path class="st1" d="M183.31,69.53c3.06-0.84,6.22-1.73,8.67-3.74c1.47-1.21,2.61-2.77,3.68-4.35"/>
	<g>
		<path class="st1" d="M183.71,70.98c2.58-0.71,5.21-1.45,7.52-2.83c2.44-1.46,4.16-3.63,5.73-5.95c0.45-0.67,0.13-1.66-0.54-2.05
			c-0.74-0.43-1.6-0.13-2.05,0.54c-1.32,1.95-2.76,3.78-4.83,4.98c-2.05,1.19-4.36,1.8-6.62,2.42
			C181.05,68.59,181.84,71.49,183.71,70.98L183.71,70.98z"/>
	</g>
</g>
<g>
	<path class="st1" d="M195.3,60.02c-0.38,0.65-0.71,1.34-0.97,2.05c-0.15,0.41-0.28,0.83-0.44,1.24c-0.36,0.91-0.88,1.75-1.3,2.63
		c-0.44,0.91-0.78,1.88-1.29,2.75c-0.58,1-1.38,1.87-2.32,2.54c0.2-1.06,0.84-2.04,1.74-2.64"/>
	<g>
		<path class="st1" d="M194,59.26c-0.57,0.99-0.99,2.04-1.37,3.12c-0.35,0.98-0.9,1.87-1.35,2.8c-0.86,1.78-1.48,3.6-3.07,4.76
			c0.73,0.56,1.47,1.13,2.2,1.69c0.16-0.75,0.48-1.35,1.05-1.74c0.66-0.46,0.97-1.31,0.54-2.05c-0.38-0.66-1.39-1.01-2.05-0.54
			c-1.22,0.85-2.12,2.06-2.43,3.54c-0.12,0.6,0.03,1.2,0.54,1.58c0.44,0.33,1.18,0.47,1.67,0.12c0.97-0.7,1.77-1.49,2.46-2.47
			c0.65-0.92,1.05-1.98,1.51-3c0.5-1.1,1.13-2.14,1.59-3.26c0.42-1.03,0.74-2.05,1.3-3.03C197.56,59.1,194.96,57.58,194,59.26
			L194,59.26z"/>
	</g>
</g>
</svg>
