<?xml version="1.0" encoding="utf-8"?>
<!-- Generator: Adobe Illustrator 25.2.3, SVG Export Plug-In . SVG Version: 6.00 Build 0)  -->
<svg version="1.1" id="Capa_1" xmlns="http://www.w3.org/2000/svg" xmlns:xlink="http://www.w3.org/1999/xlink" x="0px" y="0px"
	 viewBox="0 0 750 500" style="enable-background:new 0 0 750 500;" xml:space="preserve">
<g>
	<path d="M266.5,138.22c-9.32-1.1-13.81,1.72-14.93,9.3c-0.86,5.84-0.91,11.84-0.96,17.77c-0.12,14.62-0.04,29.24-0.04,45.41
		c3.32-1.45,5.8-2,7.6-3.41c6.83-5.4,13.66-10.83,20.03-16.75c3.71-3.44,6.51-3.73,10.04-0.11c12.88,13.21,21.61,27.73,20.6,47.41
		c-1.11,21.56,0.52,43.26-0.73,64.8c-1.62,27.93-14.3,49.81-40.8,61.28c-7.35,3.18-16.14,3.12-24.3,4.32
		c-1.34,0.2-2.85-0.76-4.42-2.59c2.11-0.59,4.2-1.28,6.34-1.74c16.34-3.54,26.82-13.69,28.93-29.96
		c2.41-18.58,3.15-37.43,3.68-56.19c0.43-15.03-0.17-30.11-1.09-45.13c-0.32-5.14-2.53-10.35-4.72-15.15
		c-2.12-4.65-6.14-7.31-11.66-5.95c-5.06,1.25-9.44,6.54-9.45,11.55c-0.06,21.22-0.3,42.44,0.23,63.64c0.1,3.79,3,7.95,5.59,11.14
		c5.22,6.44,4.7,8.59-2.82,11.33c-3.46,1.26-6.68,3.81-9.34,6.45c-2.9,2.86-5.04,6.5-7.94,10.37c-8.57-7.86-16.68-15.29-25.04-22.96
		c0.41-0.93,0.56-2.09,1.22-2.6c6.68-5.24,6.37-12.55,6.38-19.97c0.05-39.85,0.07-79.7,0.65-119.54c0.07-4.61,2.42-10.32,5.67-13.56
		c10.64-10.57,23.82-16.14,39.1-15.62c11.23,0.38,20.45,10.88,19.51,21.98c-0.57,6.79-7.35,12-14.87,11.42
		c-6.87-0.53-11.35-6.01-10.34-13.23c0.31-2.2,1.76-4.29,2.93-6.29C262.87,143.35,264.49,141.19,266.5,138.22z"/>
	<path d="M92.76,303.45c0-4.66,0-8.51,0-12.36c0-6.94,0.18-13.88-0.06-20.81c-0.34-9.75-8.15-13.89-16.53-8.91
		c-2.72,1.62-5.33,3.44-8.05,5.06c-16.93,10.06-34.19,0.94-35.9-18.84c-1.16-13.46,4.76-23.5,15.31-30.89
		c12.47-8.73,25.38-16.85,38.02-25.35c3.6-2.42,6.39-2.75,8.53,1.64c5.32,10.89,17.07,10.63,22.52,0.03
		c0.91-1.77,2.76-3.05,4.85-4.18c1.46,9.31-2.9,16.49-8,23.39c-12.92,17.45-28.29,15.97-45.26,3.86c0,11.51-0.43,21.2,0.14,30.82
		c0.41,6.93,5.9,9.24,12,5.55c3.72-2.25,7.06-5.12,10.74-7.43c13.11-8.25,27.33-3.36,32.61,11.26c4.32,11.96,3.54,24.14,0.99,36.3
		c-1.62,7.72-7.31,12.14-13.82,15.37c-12.2,6.06-25.02,10.98-35.29,20.41c-2.42,2.23-4.88,2.06-7.21-0.52
		c-1.72-1.9-3.73-3.55-5.66-5.25c-10.09-8.93-17.74-8.73-27.37,0.54c-1.59,1.53-3.55,2.69-5.9,3.49
		c0.15-11.57,7.92-18.04,15.95-24.01C60.66,291.22,76.22,292.55,92.76,303.45z"/>
	<path d="M492.64,310.53c-3.27,2.77-6.53,5.55-9.8,8.32c-0.68-0.53-1.36-1.07-2.04-1.6c1.37-2.57,2.3-5.54,4.19-7.64
		c5.09-5.65,7.03-12.04,6.88-19.59c-0.51-25.56-0.78-51.13-0.93-76.69c-0.03-4.34-1.2-6.32-5.85-6.85c-7.03-0.8-9.71-6.41-5.94-12.3
		c0.88-1.37,4.14-1.84,6.23-1.69c4.43,0.31,6.2-1.25,7.02-5.73c2.56-13.98,6.31-27.68,18.1-37.07c5.68-4.53,12.11-8.16,18.33-11.97
		c1.53-0.94,3.61-0.97,6.38-1.65c-0.67,2.23-0.65,3.95-1.47,4.57c-8.3,6.32-8.48,15.7-9.33,24.7c-0.54,5.7-0.37,11.49-0.29,17.23
		c0.12,7.86,1.91,9.73,9.54,10.56c7.95,0.86,9.26,2.99,6.72,10.93c-13.64,1.37-13.64,1.37-13.64,15.43c0,22.4-0.13,44.81,0.12,67.21
		c0.04,3.8,1.05,7.92,2.79,11.29c3.73,7.22,6.65,7.62,13.88,3.24c0.75-0.45,1.78-0.44,4.34-1.01c-1.79,2.99-2.55,5.18-4.03,6.6
		c-7.71,7.41-15.6,14.64-23.45,21.91c-3.93,3.64-7.66,3.67-11.19-0.65c-3.38-4.14-6.97-8.12-10.26-12.33
		c-1.71-2.18-2.99-4.71-4.46-7.08C493.87,309.3,493.25,309.91,492.64,310.53z"/>
	<path d="M387.26,297.26c-8.77,7.57-17.52,15.14-26.31,22.69c-1.35,1.16-2.83,2.16-4.26,3.24c-9.35,7.07-11.62,7.2-20.37-0.93
		c-13.29-12.35-21.51-27.19-21.13-45.97c0.2-10.1,0.52-20.24-0.08-30.31c-0.78-13.02,4.34-23.18,13.77-31.38
		c6.56-5.71,13.62-10.84,20.48-16.2c4.36-3.41,8.9-6.61,13.11-10.19c5.5-4.67,8.25-5.13,12.59,0.43
		c12.99,16.68,19.56,37.33,5.7,56.93c-7.02,9.93-15.72,18.78-24.38,27.4c-9.37,9.34-9.83,10.58-0.77,20.47
		c1.99,2.18,4.24,4.16,6.56,5.99c7,5.54,9.88,5.3,16.48-0.53c2-1.77,4.52-2.94,6.8-4.38C386.06,295.43,386.66,296.34,387.26,297.26z
		 M346.77,270.21c0.73,0.52,1.46,1.05,2.19,1.57c2.49-1.49,5.42-2.54,7.4-4.53c12.44-12.55,11.95-39.75-0.9-51.99
		c-1.41-1.35-4.06-2.71-5.59-2.25c-1.42,0.43-2.95,3.28-2.97,5.08C346.68,235.46,346.77,252.83,346.77,270.21z"/>
	<path d="M621.59,296.46c-1.2,1.49-2.19,3.22-3.62,4.43c-9.82,8.31-19.75,16.47-29.59,24.75c-4.35,3.65-8.6,3.4-12.88,0.02
		c-15.01-11.83-24.6-26.71-25.23-46.3c-0.32-10.09,0.69-20.27-0.23-30.29c-1.55-16.9,6.02-28.93,18.52-38.81
		c10.55-8.34,21.17-16.58,31.87-24.72c1-0.76,3.15-1.1,4.17-0.55c2.37,1.27,4.91,2.83,6.45,4.95c15.22,20.9,16.65,41.38,1.41,60.58
		c-7.09,8.93-15.64,16.74-23.75,24.84c-6.11,6.1-6.63,8.21-0.96,14.8c3.46,4.02,7.49,7.63,11.64,10.95
		c4.28,3.42,8.64,3.01,12.81-0.87c2.38-2.22,5.3-3.85,7.98-5.75C620.66,295.15,621.13,295.8,621.59,296.46z M581.39,270.42
		c0.9,0.54,1.79,1.08,2.69,1.62c2.7-1.9,5.92-3.34,8.02-5.77c14.29-16.5,9.33-34.31-1.24-50.52c-1.06-1.63-4.61-3.34-5.86-2.72
		c-1.76,0.88-3.42,3.89-3.45,6.01C581.27,236.16,581.39,253.29,581.39,270.42z"/>
	<path d="M712.49,292.33c-0.73,1.37-1.16,3.04-2.22,4.08c-10.78,10.51-21.74,20.84-32.45,31.42c-2.86,2.82-5.15,2.52-7.51-0.08
		c-7.39-8.13-14.69-16.34-22.45-24.99c-3.63,2.91-8.19,6.56-12.75,10.21c-0.58-0.6-1.17-1.2-1.75-1.79
		c1.84-2.28,3.37-4.93,5.57-6.79c7.39-6.23,10.07-13.79,9.64-23.55c-0.73-16.42-0.08-32.9-0.29-49.35
		c-0.05-4.08-0.57-8.37-1.95-12.17c-2.19-6.06-5.9-6.69-10.84-2.67c-1.31,1.07-2.76,1.96-4.14,2.94c-0.59-0.45-1.18-0.9-1.78-1.36
		c1.94-3.06,3.35-6.69,5.92-9.09c7.34-6.87,15.17-13.22,22.75-19.83c3.61-3.15,6.48-1.18,8.55,1.62c3.52,4.76,6.51,9.92,9.76,14.89
		c3.21,4.91,4.8,4.99,8.16,0.24c3.31-4.68,6.45-9.48,9.72-14.18c0.3-0.42,1.02-0.55,1.53-0.8c11.89,10.61,14.2,10.45,23.36-1.66
		c3.36,7.81-0.38,21.33-7.93,28.9c-8.43,8.45-18.85,7.67-30.09,5.58c0,4.15,0,7.47,0,10.78c0,15.86,0.14,31.72-0.05,47.57
		c-0.1,8.64,5.32,13.92,11.29,18.39c1.64,1.23,6.23-0.24,8.74-1.71c3.53-2.07,6.39-5.3,9.54-8.03
		C711.4,291.39,711.95,291.86,712.49,292.33z"/>
	<path d="M166.48,210.71c-0.86,4.65-1.79,7.27-1.75,9.87c0.24,18.8-0.22,37.67,1.36,56.37c0.97,11.4,9.2,19.49,19.37,24.6
		c1.66,0.84,5.27-1.1,7.41-2.58c3.02-2.07,5.51-4.9,8.22-7.4c0.63,0.51,1.27,1.03,1.9,1.54c-0.69,1.86-0.91,4.13-2.15,5.49
		c-3.31,3.63-6.88,7.08-10.65,10.23c-7.56,6.31-15.44,12.24-22.93,18.63c-2.72,2.32-4.79,3.28-7.44,0.31
		c-5.92-6.63-12.42-12.83-17.66-19.95c-5.96-8.1-8.86-17.53-8.67-27.87c0.25-13.67,0.29-27.35-0.02-41.01
		c-0.18-8.04,1.9-15.33,7.82-20.42c14.35-12.34,29.24-24.05,43.41-35.6c4.37,3.71,7.84,8,12.33,10.15
		c6.58,3.15,6.86-6.14,12.34-7.92c1.37,11.31-2.31,20.27-9.92,27.51C189.02,222.57,178.19,221.64,166.48,210.71z"/>
	<path d="M446.55,182.99c4.14,3.64,7.4,7.93,11.73,10c6.58,3.15,7.51-5.21,11.46-7.85c3.37,7.35-0.16,20.44-8.23,26.87
		c-4.58,3.64-10.69,7.06-16.24,7.29c-5.31,0.21-10.79-3.85-17.02-6.36c-0.51,1.61-1.76,3.7-1.74,5.78
		c0.23,19.8-0.31,39.68,1.46,59.36c0.97,10.79,9.24,18.68,19.11,23.5c1.68,0.82,5.25-1.13,7.4-2.61c3-2.06,5.49-4.87,8.2-7.36
		c0.67,0.53,1.34,1.06,2,1.6c-0.83,1.99-1.21,4.41-2.59,5.89c-3.35,3.6-7.03,6.93-10.81,10.09c-7.42,6.19-15.15,12-22.43,18.34
		c-2.81,2.45-4.88,3.06-7.44,0.19c-6.05-6.78-12.66-13.16-18-20.46c-5.82-7.96-8.5-17.29-8.34-27.39
		c0.22-13.48,0.37-26.98-0.05-40.45c-0.3-9.5,3.03-17.35,9.98-23.18C418.63,204.81,432.76,193.98,446.55,182.99z"/>
</g>
</svg>
