<?xml version="1.0" encoding="utf-8"?>
<!-- Generator: Adobe Illustrator 25.2.3, SVG Export Plug-In . SVG Version: 6.00 Build 0)  -->
<svg version="1.1" id="Capa_1" xmlns="http://www.w3.org/2000/svg" xmlns:xlink="http://www.w3.org/1999/xlink" x="0px" y="0px"
	 viewBox="0 0 750 500" style="enable-background:new 0 0 750 500;" xml:space="preserve">
<g>
	<path d="M352.74,302.88c-0.19,1.44-0.35,2.66-0.54,4.06c-1.01,0.09-1.97,0.26-2.94,0.26c-15.99,0.02-31.98-0.03-47.98,0.06
		c-2.38,0.01-3.66-0.71-4.98-2.84c-16.94-27.37-34.11-54.6-50.99-82.01c-2.33-3.79-5.23-2.12-8.21-2.51
		c-0.19,0.71-0.46,1.22-0.46,1.73c-0.03,18.93-0.29,37.87,0.05,56.8c0.24,13.48,7.62,20.74,21.18,22.04
		c0.54,0.05,1.07,0.16,1.77,0.26c0,2.06,0,3.98,0,6.18c-29.76,0-59.41,0-89.37,0c0-2.01,0-4.03,0-6.24c1.28-0.12,2.52-0.2,3.75-0.36
		c15.62-1.95,19.45-12.2,19.52-22.71c0.31-43.09,0.22-86.19,0.08-129.28c-0.04-13.31-6.27-19.95-19.63-22.04
		c-1.23-0.19-2.45-0.44-3.84-0.69c-0.07-0.91-0.16-1.73-0.18-2.55c-0.03-0.95-0.01-1.91-0.01-3.25c1.84-0.12,3.34-0.31,4.85-0.31
		c28.3-0.02,56.61-0.25,84.91,0.07c17.57,0.2,34.74,2.89,50.34,11.85c12.99,7.46,21.32,26.13,19.95,40.67
		c-2.38,25.08-18.65,36.38-41,43.39c13.32,20.42,26.55,40.7,40.47,62.04c0-11.63,0-22.09,0-32.36c6.68-2.69,8.66-1.69,10.31,4.28
		c3.76,13.61,10,26.07,19.78,36.24c7.97,8.29,18.33,12.9,29.74,14.8c8.6,1.43,17.13,1.37,25.47-1.61
		c14.54-5.2,22.94-22.32,17.67-36.79c-3.27-8.97-10.9-13.74-19.01-17.6c-15.74-7.49-31.74-14.46-47.34-22.22
		c-11.7-5.82-22.23-14-27.67-25.91c-14.66-32.1-1.06-64.5,34.5-73.89c20.89-5.51,41.3-2.67,61.49,3.72
		c1.73,0.55,3.58,0.79,5.24,1.49c4.35,1.81,7.33-0.02,9.78-3.42c3.83-5.31,3.81-5.32,10.69-4.36c0,19.13,0,38.31,0,57.48
		c-6.47,1.63-7.36,1.37-9.71-4.67c-5.74-14.78-13.97-27.72-27.57-36.43c-12.72-8.15-26.73-9.22-41.06-5.57
		c-9.68,2.47-15.26,9.55-17.15,19.02c-1.9,9.48,1.2,17.88,9.18,23.38c6.41,4.42,13.61,7.77,20.63,11.24
		c15.25,7.54,31.11,13.97,45.79,22.46c20.48,11.85,30.14,30.3,27.65,54.21c-1.03,9.95-6.04,18.32-12.33,25.94
		c-12.5,15.14-29.36,20.88-48.22,22.92C388.58,311.88,370.59,308.91,352.74,302.88z M236.42,211.1c6.6-0.49,12.44-0.47,18.11-1.44
		c15.74-2.69,26.38-9.71,28.9-24.73c1.22-7.31,1.18-14.9,1.11-22.35c-0.19-22.54-13.88-35.03-36.25-33.4
		c-8.45,0.61-11.86,4.24-11.87,12.65c-0.01,17.94,0,35.88,0,53.82C236.42,200.57,236.42,205.49,236.42,211.1z"/>
	<path d="M25.11,126.34c-0.62-6.86-0.62-6.87,5.55-6.87c28.45,0,56.9-0.09,85.35,0.03c16.32,0.07,32.24,2.21,47.1,9.69
		c15.6,7.86,22.36,21.08,23.75,37.74c2.28,27.3-16.45,45.37-40.35,51.79c-10.21,2.74-21.11,3.14-31.74,4.03
		c-6.87,0.57-13.82,0.11-21.17,0.11c-0.08,1.76-0.21,3.25-0.21,4.73c-0.01,17.52,0.34,35.06-0.14,52.57
		c-0.3,11,6.75,17.34,16.17,19.44c2.44,0.54,4.94,0.84,7.61,1.28c0,1.94,0,3.87,0,6.07c-30.53,0-61.04,0-91.88,0
		c0-1.96,0-3.96,0-5.85c3.52-0.77,7.01-1.23,10.28-2.32c7.9-2.63,12.98-9.59,12.99-17.88c0.06-44.94,0.07-89.88-0.01-134.82
		c-0.02-11.14-7.77-18.58-19.78-19.47C27.53,126.53,26.43,126.44,25.11,126.34z M93.24,213.68c9.34-1.65,18.14-2.6,26.6-4.87
		c8.54-2.29,14.03-8.16,16.33-17.13c2.74-10.69,2.92-21.45,2.34-32.3c-1-18.77-13.77-30.62-32.61-30.17
		c-7.46,0.18-12.95,3.18-12.79,12.56c0.38,22,0.12,44.01,0.12,66.02C93.24,209.3,93.24,210.81,93.24,213.68z"/>
	<path d="M474.03,185.4c0.35-0.74,0.41-0.97,0.46-0.97c11.68,0.12,23.44-0.57,35.01,0.64c9.99,1.04,12.12,8.88,12.58,15.05
		c0.49,6.62-3.74,11.19-12.61,14.29c5.74,8.59,11.35,17.13,17.21,25.5c0.59,0.84,3.01,1.26,4.01,0.75c1.24-0.63,2.54-2.38,2.65-3.73
		c0.34-4.21,0.14-8.47,0.14-12.71c0-9.47-0.1-18.93,0.04-28.4c0.08-5.11,0.68-10.28-7.6-10.23c0.33-0.41,0.67-0.83,1-1.24
		c15.01,0,30.03,0,45.18,0c0,5.44,0,11.06,0,16.68c-0.27,0.05-0.54,0.11-0.82,0.16c-0.44-1.49-0.91-2.97-1.32-4.47
		c-1.7-6.17-6.16-9.79-12.52-9.88c-10.65-0.15-11.69-1.04-11.34,10.85c0.13,4.21,0.02,8.43,0.02,12.55
		c7.28,1.76,8.75,0.56,14.45-11.4c1.62,2.09,2.03,23.69,0.09,29c-1.34-8.15-4.67-14.09-14.51-13.82c0,7.77-0.27,15.23,0.25,22.64
		c0.09,1.32,3.43,3.27,5.4,3.44c6.93,0.58,17.23-1.97,21.29-12.59c0.4-1.05,1.5-1.85,2.27-2.76c0.43,0.27,0.85,0.54,1.28,0.81
		c-0.89,5.08-1.63,10.2-2.8,15.23c-0.23,1.01-2.06,2.36-3.16,2.37c-18.68,0.15-37.36,0.15-56.04,0c-1.31-0.01-3.09-1.26-3.82-2.44
		c-4.58-7.41-8.87-15-13.39-22.45c-0.62-1.02-1.93-1.62-2.92-2.41c-0.35,1.14-0.94,2.27-1,3.42c-0.14,2.96-0.07,5.93-0.04,8.9
		c0.05,5.81-1.34,12.32,7.84,13.71c-0.32,0.33-0.63,0.66-0.95,0.99c-8.73,0-17.45,0-26.17,0c-0.05-0.26-0.1-0.51-0.15-0.77
		c0.68-0.32,1.32-0.77,2.03-0.94c3.21-0.74,4.76-2.74,4.76-6c0-14.13-0.06-28.26,0.03-42.39C480.9,188.1,477.47,186.81,474.03,185.4
		z M493.83,212.76c6.9,0.59,11.02-1.37,13.27-5.99c2.4-4.94,1.8-14.12-1.62-17.18c-1.63-1.46-4.09-2.24-6.31-2.77
		c-3.27-0.78-5.25,0.91-5.3,4.22C493.75,198.18,493.83,205.34,493.83,212.76z"/>
	<path d="M24.07,108.18c235.35,0,470.27,0,705.17,0c0.86,2.65,0.19,3.98-2.63,3.73c-0.7-0.06-1.41-0.01-2.12-0.01
		c-231.85,0-463.7,0-695.55-0.04C26.73,111.85,22.98,113.29,24.07,108.18z"/>
	<path d="M729.32,316.09c0.07,1.4,0.12,2.44,0.18,3.67c-235.29,0-470.33,0-705.33,0c-0.89-2.7-0.09-3.91,2.67-3.68
		c1.12,0.09,2.26,0.01,3.4,0.01c230.99,0,461.98,0,692.96,0C725.16,316.09,727.12,316.09,729.32,316.09z"/>
	<path d="M730.04,391.77c-1.01,0.75-1.94,1.66-3.05,2.18c-0.7,0.33-1.67,0.07-2.52,0.07c-231.83,0-463.67,0-695.5-0.07
		c-1.95,0-5.7,1.78-4.96-3.33c235.02,0,470.03,0,705.05,0C729.38,391,729.71,391.39,730.04,391.77z"/>
	<path d="M660.44,158.99c-1.25,6.22-2.43,12.45-3.83,18.63c-0.15,0.65-1.63,1.42-2.49,1.42c-14.15,0.06-28.3,0.01-42.44-0.03
		c-0.23,0-0.46-0.23-1.31-0.69c0.82-0.65,1.36-1.41,2.03-1.56c3.83-0.81,5.19-3.13,5.16-6.95c-0.12-13.56-0.03-27.12-0.06-40.68
		c-0.01-4.81-2.5-7.67-6.49-7.6c-3.68,0.06-6.21,2.96-6.24,7.54c-0.08,10.17,0.02,20.34-0.05,30.51
		c-0.07,10.5-4.07,16.52-12.6,19.22c-10.4,3.29-22.62,0.33-27.54-7.28c-1.72-2.66-2.65-6.25-2.75-9.46
		c-0.34-10.16-0.27-20.34-0.07-30.51c0.1-5.2-0.15-9.81-6.64-11.25c9.06,0,18.12,0,27.18,0c0.05,0.19,0.1,0.39,0.15,0.58
		c-0.94,0.33-1.88,0.67-2.82,0.98c-3.17,1.04-4.84,3.03-4.81,6.54c0.09,11.16,0,22.32,0.1,33.48c0.01,1.79,0.39,3.64,0.93,5.36
		c1.94,6.23,4.68,8.56,9.89,8.65c6.44,0.12,11.54-2.84,13.21-8.42c1.07-3.57,1.58-7.41,1.7-11.15c0.25-7.9,0.07-15.82,0.07-23.73
		c0-8.62,0-8.62-8.65-12.27c15.96,0,30.77,0,45.58,0c0.05,0.18,0.1,0.36,0.15,0.54c-1.06,0.4-2.09,0.85-3.17,1.18
		c-2.95,0.9-4.4,2.9-4.4,5.93c-0.02,14.27-0.02,28.54,0,42.8c0,3.48,1.92,4.84,5.3,5.11c12.51,1.02,16.66-5,20.89-13.99
		c0.58-1.24,1.31-2.4,1.98-3.6C659.07,158.54,659.75,158.76,660.44,158.99z"/>
	<path d="M543.61,307.44c-6.55-15.98-13.1-31.97-20.09-49.05c-0.22,2.06-0.41,3.03-0.41,4c-0.02,11.3-0.01,22.6-0.01,33.91
		c0,6.82,0,6.81,6.22,9.13c0.49,0.18,0.96,0.42,1.36,1.32c-5.78,0-11.56,0-18.67,0c2.05-0.85,2.94-1.28,3.87-1.6
		c2.72-0.93,4.02-2.67,4-5.67c-0.08-14.69-0.07-29.39-0.01-44.08c0.01-2.84-1.06-4.52-3.91-5.09c-0.99-0.2-1.9-0.73-2.85-1.12
		c0.05-0.39,0.1-0.79,0.15-1.18c6.11,0,12.22-0.08,18.33,0.11c0.63,0.02,1.4,1.54,1.78,2.49c5.01,12.34,9.97,24.71,15.32,38.02
		c2.46-6.15,4.64-11.61,6.83-17.08c2.81-7.03,5.6-14.07,8.48-21.07c0.38-0.93,1.22-2.37,1.88-2.39c6.39-0.18,12.78-0.11,19.54-0.11
		c-0.45,1.12-0.56,1.78-0.75,1.8c-6.11,0.77-6.44,4.93-6.35,9.87c0.22,11.44,0.15,22.89,0.04,34.33
		c-0.05,5.44-0.94,11.14,7.68,11.82c-0.33,0.33-0.65,0.65-0.98,0.98c-8.63,0-17.26,0-25.89,0c-0.05-0.18-0.1-0.36-0.16-0.54
		c0.92-0.37,1.82-0.83,2.78-1.08c2.73-0.71,3.92-2.42,3.92-5.21c-0.03-14.26-0.02-28.53-0.68-43.01
		c-6.62,16.86-13.24,33.72-19.87,50.59C544.65,307.49,544.13,307.46,543.61,307.44z"/>
	<path d="M689.67,279.52c0,7.1-0.21,13.88,0.16,20.63c0.09,1.59,1.99,3.22,3.34,4.54c0.79,0.77,2.16,0.94,3.14,2.11
		c-8.64,0-17.28,0-25.92,0c-0.05-0.18-0.1-0.37-0.15-0.55c0.65-0.26,1.28-0.58,1.95-0.77c3.43-0.99,4.9-3.02,4.84-6.79
		c-0.2-13.7-0.19-27.4-0.01-41.1c0.06-4.27-0.76-7.25-5.68-7.53c-0.42-0.02-0.8-0.59-2.1-1.61c9.68,0,18.32,0,28.13,0
		c-1.46,0.98-2.07,1.68-2.78,1.81c-3.77,0.7-5.05,3-4.96,6.65c0.14,5.9,0.04,11.8,0.04,17.94c6.53,0,12.7,0,19.52,0
		c0-6.89,0.21-13.89-0.19-20.86c-0.07-1.27-2.63-2.47-4.14-3.56c-0.72-0.53-1.68-0.74-2.24-2.05c8.65,0,17.3,0,26.03,0
		c-0.13,0.71-0.15,1.21-0.23,1.22c-6.96,0.76-6.64,5.71-6.57,10.85c0.16,11.44,0.05,22.88,0.05,34.32c0,8.26,0,8.26,7.61,12
		c-9.56,0-18.19,0-26.83,0c-0.06-0.18-0.13-0.36-0.19-0.54c0.77-0.29,1.51-0.65,2.3-0.85c3.21-0.81,4.56-2.74,4.47-6.12
		c-0.17-6.48-0.05-12.96-0.05-19.74C702.71,279.52,696.44,279.52,689.67,279.52z"/>
	<path d="M625.28,241.66c1-0.23,2.04-0.39,3.01-0.71c2.31-0.78,3.79-2.04,3.77-4.87c-0.1-14.97-0.14-29.94,0.01-44.91
		c0.05-4.82-3.84-4.72-7.24-6.01c0.73-0.64,1.1-1.23,1.46-1.23c10.72,0.2,21.63-0.7,32.11,1c15.46,2.51,24.42,17.29,21.58,32.87
		c-3.17,17.39-12.88,25.45-30.7,25.46c-6.93,0-13.86,0.02-20.8-0.02c-1.06-0.01-2.12-0.28-3.18-0.43
		C625.3,242.42,625.29,242.04,625.28,241.66z M644.65,213.57c0,7.05,0.07,14.1-0.03,21.15c-0.05,3.64,1.89,5.09,5.18,5.25
		c6.41,0.31,12.46-3.72,14.17-9.86c2.93-10.52,2.96-21.16,0.13-31.71c-1.63-6.06-5.64-9.95-11.85-11.4
		c-5.3-1.24-7.51,0.39-7.58,5.84C644.58,199.75,644.66,206.66,644.65,213.57z"/>
	<path d="M596.22,214.02c0,7.73-0.15,14.93,0.14,22.11c0.05,1.24,1.78,3.05,3.11,3.5c8.17,2.8,19.47-2.99,22.98-11.44
		c0.53-1.27,1.4-2.39,2.11-3.58c0.63,0.24,1.25,0.48,1.88,0.72c-1.05,5.57-2.03,11.15-3.23,16.69c-0.12,0.55-1.57,1.16-2.4,1.17
		c-14.15,0.06-28.31,0.04-42.46-0.01c-0.55,0-1.09-0.48-2.6-1.18c1.81-0.49,2.64-0.69,3.47-0.93c2.72-0.79,4.32-2.38,4.31-5.43
		c-0.05-14.7-0.1-29.4,0.03-44.09c0.04-4.77-3.73-5.15-6.71-7.2c15.02,0,30.04,0,45.37,0c0,5.41,0,11.04,0,16.68
		c-0.33,0.1-0.65,0.21-0.98,0.31c-0.39-0.95-0.94-1.86-1.14-2.85c-1.59-7.82-6.16-11.53-14.15-11.68
		c-11.48-0.22-9.76,0.98-9.77,9.65c0,4.38,0.03,8.76,0.07,13.14c0,0.26,0.17,0.52,0.33,0.99c9.64,2.07,11.06-5.86,14.55-11.73
		c0,9.48,0,18.96,0,28.44C608.95,219.89,605.99,213.61,596.22,214.02z"/>
	<path d="M473.41,119.85c9.4,0,18.79-0.02,28.19,0.01c2.11,0.01,4.31-0.15,6.33,0.34c10.41,2.49,13.01,8.72,13.24,16.12
		c0.26,8.25-5.8,14.38-14.72,15.66c-4.43,0.64-8.92,0.84-13.76,1.27c0,5.9-0.42,11.83,0.23,17.65c0.23,2.06,3,3.92,4.8,5.67
		c0.62,0.61,1.82,0.63,2.76,0.92c-0.06,0.36-0.12,0.72-0.18,1.08c-8.96,0-17.92,0-27.07,0c0.18-0.6,0.25-1.26,0.41-1.28
		c5.92-0.92,6.49-4.96,6.39-9.94c-0.23-11.58-0.25-23.17,0.01-34.75c0.12-5.5-0.15-10.31-7.4-11.44
		C472.89,120.73,473.15,120.29,473.41,119.85z M492.69,149.17c6.76,0.91,10.99-0.86,13.3-5.34c2.49-4.83,1.91-15.8-1.69-18.4
		c-2.28-1.65-5.63-2.17-8.56-2.39c-0.91-0.07-2.85,2.48-2.91,3.89C492.53,134.36,492.69,141.8,492.69,149.17z"/>
	<path d="M474.26,306.32c0-6.17,0-12.99,0-21.25c1.25,1.65,1.88,2.27,2.26,3.02c1.65,3.25,2.94,6.72,4.9,9.76
		c2.83,4.4,7.08,6.78,12.42,6.82c4.23,0.03,7.33-1.85,8.81-5.92c1.52-4.19,0.46-8.41-3.29-10.82c-4.48-2.88-9.24-5.36-13.98-7.8
		c-10.98-5.66-12.15-18.97-7.03-26.37c3.59-5.19,11.46-7.94,18.55-6.4c0.68,0.15,1.35,0.38,2.03,0.53c6.5,1.45,6.5,1.45,11.19-0.75
		c0,6.07,0,11.99,0,17.92c-0.34,0.17-0.68,0.34-1.01,0.51c-0.88-1.68-1.84-3.31-2.61-5.03c-3.27-7.28-8.09-10.58-14.86-10.31
		c-3.31,0.13-5.59,1.45-6.86,4.58c-1.23,3.02-1.15,6,1.19,8.21c2.21,2.08,4.93,3.67,7.56,5.25c3.49,2.09,7.23,3.79,10.67,5.96
		c7.26,4.58,10.22,12.24,7.99,20.02c-2.31,8.06-8.94,13.19-17.59,12.91c-4.27-0.14-8.49-1.56-12.78-1.92
		C479.56,305.02,477.21,305.85,474.26,306.32z"/>
	<path d="M362.09,328.59c0.29-0.25,0.6-0.74,0.9-0.73c9.74,0.15,19.52-0.13,29.2,0.71c7.42,0.64,11.26,5.98,11.25,13.44
		c0,7.23-3.7,11.36-11.4,12.75c-0.66,0.12-1.31,0.33-2.91,0.74c8.38,8.29,12.57,19.46,23.16,24.78c-3.02,2.34-11.47,1.66-13.9-1.46
		c-5.1-6.57-10.02-13.27-15.25-19.73c-1.24-1.53-3.42-2.31-6.17-4.07c0,7.84-0.48,14.08,0.27,20.18c0.25,2.05,3.63,3.72,5.7,5.67
		c-6.7,0-13.7,0-20.7,0c-0.04-0.29-0.07-0.58-0.11-0.87c0.7-0.23,1.39-0.53,2.11-0.68c3.27-0.64,4.65-2.42,4.6-5.91
		c-0.17-12.29-0.15-24.59-0.02-36.88c0.04-3.87-1.15-6.28-5.3-6.57c-0.38-0.03-0.79-0.29-1.11-0.54
		C362.24,329.27,362.21,328.92,362.09,328.59z M376.78,353.02c2.82,0,4.93,0.14,7.02-0.03c6.93-0.55,10.75-4.41,11.29-10.23
		c0.92-9.94-9.45-12.92-16.52-11.62c-0.72,0.13-1.69,1.59-1.71,2.44C376.72,339.9,376.78,346.23,376.78,353.02z"/>
	<path d="M563.32,178.64c-8.15,0-16.8,0-25.45,0c-0.1-0.29-0.21-0.58-0.31-0.87c0.82-0.35,1.61-0.92,2.46-1.02
		c3.69-0.43,4.38-2.65,3.48-5.72c-0.63-2.15-1.32-4.33-2.37-6.29c-0.52-0.97-1.88-2.06-2.91-2.11c-4.51-0.23-9.05-0.27-13.56,0.02
		c-1.1,0.07-2.23,1.52-3.12,2.53c-0.51,0.58-0.55,1.57-0.81,2.37c-2.21,6.79-2.21,6.78,4.42,9.53c0.28,0.12,0.38,0.68,0.82,1.56
		c-5.68,0-11.03,0-17.24,0c9.98-8.4,10.59-20.44,15.14-30.58c3.72-8.28,6.32-17.06,9.55-25.57c0.53-1.39,1.72-2.53,2.61-3.79
		c0.99,1.21,2.37,2.26,2.91,3.64c6.35,16.16,12.48,32.42,18.94,48.54C559.02,173.69,561.42,175.98,563.32,178.64z M539.34,158.35
		c-2.74-7.05-5.25-13.5-8.15-20.93c-2.58,7.62-4.79,14.13-7.1,20.93C529.27,158.35,533.88,158.35,539.34,158.35z"/>
	<path d="M665.82,265.46c-3.68-10.81-7.98-14.66-17.03-13.97c0,2.88,0,5.8,0,8.73c0,12.43,0.26,24.86-0.13,37.28
		c-0.15,4.96,1.59,7.35,6.26,8.06c0.5,0.08,0.98,0.33,1.41,1.2c-9.32,0-18.64,0-28.01,0c0.09-0.37,0.11-0.8,0.23-0.84
		c7.43-2.04,7.62-2.29,7.62-10.1c0-13.27,0-26.55,0-39.82c0-1.51,0-3.03,0-4.72c-10.64-0.62-14.89,5.43-16.12,15
		c-0.39-0.26-0.78-0.52-1.18-0.79c0-5.62,0-11.24,0-17.2c15.53,0,31.26,0,46.94,0C665.82,254.08,665.82,259.77,665.82,265.46z"/>
	<path d="M60.93,353.17c7.31,0,13.5,0,19.83,0c-1.79,1.39-4.07,2.36-4.88,4.03c-0.84,1.73-0.26,4.15-0.27,6.26
		c-0.01,3.81,0.17,7.64-0.1,11.43c-0.09,1.24-1.05,3.01-2.09,3.49c-11.74,5.44-25.96,6.18-37.86-2.72
		c-12.05-9-11.71-31.41-0.61-41.18c8.22-7.23,17.56-8.68,28-6.77c3.49,0.64,7.2,0.1,11.28,0.1c0,4.89,0,10.6,0,16.31
		c-0.25,0.1-0.5,0.19-0.76,0.29c-0.44-0.69-0.98-1.34-1.3-2.08c-4.17-9.58-9.16-12.91-18.4-12.25c-7.84,0.56-15.05,6.86-17.15,15.23
		c-1.72,6.85-1.23,13.73,0.82,20.39c3.26,10.6,16.02,16.53,26.37,12.44c2.66-1.05,4.45-2.77,4.23-6.05
		c-0.21-3.09-0.04-6.21-0.04-9.32C67.99,356.07,67.99,356.07,60.93,353.17z"/>
	<path d="M588.49,248.28c9.29,0,18.57,0,27.86,0c0.1,0.33,0.19,0.66,0.29,0.99c-0.83,0.34-1.66,0.94-2.51,0.97
		c-4.17,0.15-5.38,2.26-5.32,6.29c0.2,13.83,0.25,27.66-0.02,41.48c-0.08,4.36,1.39,6.62,5.61,7.27c0.74,0.11,1.43,0.56,2.04,1.54
		c-9.32,0-18.65,0-27.97,0c-0.04-0.23-0.08-0.46-0.12-0.69c0.82-0.22,1.64-0.45,2.46-0.66c3.71-0.94,5.6-2.91,5.53-7.15
		c-0.23-13.26-0.08-26.53-0.08-39.79c0-6.66-0.04-6.69-6.7-8.45c-0.47-0.12-0.85-0.59-1.27-0.9
		C588.35,248.88,588.42,248.58,588.49,248.28z"/>
	<path d="M341.41,381.04c-6.78,0-13.47,0-21.08,0c6.99-4.09,6.77-4.02,4.22-11.34c-1.49-4.27-3.49-6.54-8.43-5.83
		c-3.6,0.52-7.36,0.34-11.02,0.03c-3.17-0.27-5.12,0.67-5.99,3.76c-0.19,0.67-0.6,1.27-0.87,1.91c-2.87,6.96-2.78,7.29,4.14,11.42
		c-5.97,0-10.97,0-16.28,0c10.23-9.72,12.13-23.27,17.97-34.81c2.72-5.38,4.75-11.09,7.2-16.61c0.46-1.03,1.43-1.83,2.16-2.74
		c0.8,0.85,1.91,1.56,2.36,2.56c5.74,12.8,11.4,25.64,17.05,38.48c1.02,2.31,1.63,4.85,2.97,6.93
		C337.23,376.99,339.31,378.75,341.41,381.04z M320.64,360.62c-3.11-7.44-5.98-14.29-9.13-21.83c-1.87,4.35-3.39,7.81-4.84,11.3
		c-1.42,3.42-2.77,6.87-4.24,10.53C308.57,360.62,314.19,360.62,320.64,360.62z"/>
	<path d="M136.65,328.01c6.76,0,13.09,0,19.42,0c0.1,0.33,0.2,0.66,0.3,0.99c-0.83,0.35-1.63,0.89-2.5,1.02
		c-3.7,0.57-5.27,2.68-5.24,6.36c0.08,8.19-0.27,16.39,0.08,24.57c0.76,17.6-11.71,22.79-25.84,20.43
		c-5.86-0.98-11.33-2.76-13.66-9.02c-0.72-1.93-1.22-4.06-1.25-6.11c-0.13-9.32-0.21-18.64,0.01-27.96
		c0.11-4.67-0.74-8.16-6.21-8.63c-0.26-0.02-0.47-0.61-1.09-1.48c7.76,0,15.07,0,22.89,0c-0.68,0.87-0.86,1.37-1.17,1.46
		c-6.85,2.08-6.85,2.07-6.85,9.36c0,8.61-0.09,17.23,0.03,25.84c0.11,8.02,4.32,12.45,12.59,13.58c6.5,0.89,13.93-3.16,15.69-8.72
		c0.5-1.57,0.63-3.3,0.65-4.96c0.06-9.04-0.12-18.08,0.09-27.11c0.11-4.56-1.28-7.38-6.18-7.68c-0.39-0.02-0.8-0.26-1.12-0.51
		C137.08,329.32,137.05,328.98,136.65,328.01z"/>
	<path d="M437.06,381.05c-0.52-4.5-1.18-10.2-1.83-15.9c0.36-0.12,0.73-0.25,1.09-0.37c0.38,0.68,0.85,1.32,1.12,2.04
		c2.38,6.35,6.55,10.71,13.35,12.24c5.02,1.13,9.77-1.09,11.98-5.65c1.79-3.69,0.68-7.82-3.62-10.95c-4.65-3.39-9.59-6.41-14.5-9.42
		c-7.21-4.42-9.05-10.3-6.32-18.12c2.16-6.17,9.73-9.45,17.34-7.93c4.17,0.84,8.32,3.5,13.04-1.34c0,6.75,0,12.2,0,17.65
		c-0.25,0.12-0.51,0.24-0.76,0.36c-0.55-1.24-1.11-2.48-1.66-3.73c-2.41-5.49-6.02-9.48-12.43-10.08c-5.11-0.48-7.68,0.84-9.18,4.86
		c-1.45,3.88-0.02,8.4,3.67,10.72c3.45,2.17,7.15,3.94,10.55,6.18c3.04,2,6.23,4.04,8.65,6.69c6.21,6.81,4.41,16.61-3.67,21.15
		c-5.81,3.26-11.89,3.68-18.33,1.7C443.34,380.48,440.75,381.05,437.06,381.05z"/>
	<path d="M220.55,341.19c0-4.25,0-8.5,0-13.13c14.86,0,29.87,0,44.98,0c0,4.45,0,8.81,0,12.66c-2.09-2.82-3.73-6.72-6.65-8.49
		c-2.97-1.8-7.22-1.49-11.72-2.23c0,2.35,0,3.83,0,5.3c0,12.14,0,24.27,0,36.41c0,6.59,0.1,6.69,6.58,7.74
		c0.35,0.06,0.66,0.38,1.01,0.6c-2.12,1.93-19.99,2.25-23.18,0.49c0.11-0.25,0.17-0.68,0.34-0.72c7.29-1.98,7.29-1.97,7.29-9.9
		c0-11.43,0-22.86,0-34.29c0-1.51,0-3.02,0-4.45C227.93,329.68,227,330.22,220.55,341.19z"/>
	<path d="M200,380.72c-7.61,0-15.22,0-22.82,0c-0.04-0.22-0.08-0.45-0.13-0.67c0.82-0.24,1.63-0.55,2.47-0.7
		c3.4-0.61,5.06-2.34,5.01-6.05c-0.15-11.86-0.05-23.72-0.06-35.58c0-6.29-0.01-6.27-6.18-7.85c-0.56-0.14-1.03-0.66-2.55-1.69
		c8.96,0,16.73,0,25.04,0c-0.7,0.87-0.89,1.35-1.2,1.44c-6.91,2.14-6.91,2.14-6.91,9.56c0,10.03,0,20.05,0,30.08
		C192.67,377.59,192.67,377.59,200,380.72z"/>
</g>
</svg>
