<?xml version="1.0" encoding="utf-8"?>
<!-- Generator: Adobe Illustrator 25.2.3, SVG Export Plug-In . SVG Version: 6.00 Build 0)  -->
<svg version="1.1" id="Capa_1" xmlns="http://www.w3.org/2000/svg" xmlns:xlink="http://www.w3.org/1999/xlink" x="0px" y="0px"
	 viewBox="0 0 750 500" style="enable-background:new 0 0 750 500;" xml:space="preserve">
<g>
	<path d="M130.72,380.74c-0.74-0.97-1.92-0.88-2.92-1.2c-4.35-1.43-5.89-4.4-4.14-8.57c5.28-12.57,11.7-24.59,17.66-36.83
		c12.1-24.85,23.88-49.84,32.46-76.2c0.22-0.67,0.38-1.35,0.63-2.01c0.48-1.25,0.42-2.43-0.63-3.3c-1.07-0.89-2.2-0.48-3.37,0.03
		c-6.96,3.06-13.95,6.08-20.94,9.07c-1.01,0.43-2.08,0.75-3.14,1.01c-3.24,0.81-5.17-0.42-5.97-3.68
		c-0.86-3.52-0.46-6.97,0.52-10.39c0.82-2.83,2.63-4.65,5.47-5.48c11.48-3.36,22.09-8.88,33.07-13.48c1.23-0.52,1.88-1.24,2.28-2.49
		c6.16-19.26,12.54-38.45,15.68-58.51c0.73-4.66,1.13-9.36,0.9-14.1c-0.48-9.94-6.45-14.82-16.38-13.64
		c-14.29,1.71-27.39,6.87-39.7,13.97c-28.19,16.25-54.25,35.42-78.06,57.62c-8.45,7.88-16.77,15.88-25.66,23.28
		c-4.83,4.01-9.71,4.34-15.15,0.88c-4.53-2.88-7.49-7.09-10.18-11.56c0-1.41,0-2.81,0-4.22c1.69-4.36,4.95-7.47,8.38-10.42
		c33.35-28.71,69.84-52.58,109.88-70.92c14.78-6.77,29.94-12.51,46.02-15.43c6.75-1.23,13.54-1.92,20.36-0.79
		c10.43,1.73,17.57,9.32,19.88,20.67c1.8,8.88,1.33,17.78,0.33,26.68c-1.56,13.96-4.72,27.62-7.94,41.27
		c-0.16,0.68-0.26,1.38-0.28,2.08c-0.09,3.2,1.21,4.24,4.25,3.31c13.69-4.18,27.39-8.3,41.02-12.67c2.6-0.83,3.39,0.15,4.07,2.17
		c3.1,9.22-1.36,17.85-10.73,20.17c-12.53,3.1-25.09,6.03-37.41,9.96c-5.19,1.66-8.46,4.39-10.03,9.61
		c-12.77,42.36-30.34,82.87-47.93,123.37c-2.47,5.69-6.41,8.92-11.99,10.72C137.55,380.74,134.14,380.74,130.72,380.74z"/>
	<path d="M566.81,116.02c0.14,0.46,0.52,0.49,0.91,0.61c5.51,1.76,7.59,5.3,5.94,10.87c-2.37,7.97-5.69,15.61-8.98,23.24
		c-16.07,37.3-28.88,75.75-40.27,114.68c-2.73,9.32-4.97,18.79-5.4,28.58c-0.15,3.32-0.16,6.62,0.74,9.86
		c1.68,6.04,6.02,8.57,12.16,7.18c2.58-0.59,4.85-1.85,7.2-2.97c3.85-1.84,6.03-1.61,8.5,0.87c2.62,2.64,3.11,5.85,1.19,9.36
		c-3.19,5.84-8.72,8.48-14.79,9.89c-9.59,2.24-18.85,1.05-27.07-4.59c-4.76-3.27-8.96-3.38-13.88-0.41c-5,3.01-10.57,4.82-16.5,5.14
		c-12.57,0.66-21.87-5.21-26.77-16.84c-8.43-20.05-0.58-50.16,16.65-63.49c10.09-7.81,21.04-8.72,32.52-3.43
		c3.26,1.5,6.12,3.63,6.48,7.65c0.31,3.41-1.26,5.14-4.67,5.15c-1.5,0-3.05-0.08-4.48-0.46c-6.13-1.62-11.49,0.05-15.8,4.3
		c-11.64,11.48-15.72,25.46-11.92,41.3c2.57,10.73,12.61,13.97,21.55,7.5c7.03-5.09,9.89-12.56,10.8-20.72
		c3.42-30.92,11.52-60.73,20.92-90.27c7.34-23.08,14.55-46.21,23.87-68.6c0.04-0.09,0.07-0.19,0.11-0.28
		c2.59-6.65,5.64-12.85,13.76-14.11C561.98,116.02,564.39,116.02,566.81,116.02z"/>
	<path d="M281.02,258.23c-7.73-0.71-15.47-0.8-23.17-1.58c-2.31-0.23-4.63-0.29-6.83,0.62c-2.35,0.98-3.84,2.72-3.65,5.32
		c0.18,2.5,1.77,3.61,4.28,4.26c12.89,3.33,25.88,2.7,38.92,1.44c3.5-0.34,7-0.58,10.5-0.93c3.32-0.34,5.32,1.26,6.48,4.19
		c1.3,3.26,0.81,6.14-1.51,8.29c-1.56,1.44-3.4,2.45-5.32,3.37c-4.53,2.17-9.29,3.71-14.01,5.39c-4.71,1.68-8.92,4.12-12.07,8.11
		c-1.84,2.33-3.06,4.79-1.09,7.66c1.97,2.87,4.8,2.53,7.6,1.83c4.33-1.08,8.15-3.32,11.94-5.58c10.44-6.24,20.07-13.66,30.19-20.38
		c10.37-6.89,21.43-12.14,33.77-14.4c2.5-0.46,5.02-0.46,7.5-0.14c3.32,0.44,5.72,2.18,6.87,5.5c0.62,1.79,1.41,3.54,2.35,5.19
		c2.55,4.46,5.35,4.76,8.69,0.94c1.52-1.73,2.83-3.65,4.24-5.48c6.41-8.25,12.66-16.67,21.59-22.5c4.56-2.97,9.42-4.79,15.06-3.78
		c8.53,1.52,12.47,6.57,11.75,15.19c-0.68,8.14-2.9,15.94-4.94,23.8c-1.75,6.77-4.17,13.43-4.48,20.5c-0.26,5.8,1.19,7.13,7.06,6.74
		c3.16-0.21,6.22-0.36,8.66,2.25c2.79,2.99,2.58,6.28-0.67,8.78c-3.71,2.85-8.17,3.09-12.56,3.53c-3.03,0.31-6.04-0.02-8.99-0.62
		c-8.45-1.72-13.1-7.7-13.43-16.8c-0.29-7.91,1.38-15.56,2.69-23.27c0.35-2.08,0.76-4.15,0.61-6.27c-0.12-1.66-0.62-3.24-2.3-3.96
		c-1.65-0.71-2.91,0.38-4.04,1.35c-2.99,2.58-5.27,5.78-7.54,8.98c-6.26,8.85-12.49,17.72-18.74,26.57
		c-2.57,3.64-5.72,6.73-9.24,9.44c-6.88,5.3-16.26,2.14-18.71-6.21c-2.12-7.24-0.72-14.31,0.81-21.4c0.42-1.96,0.88-3.91,1.38-5.85
		c0.38-1.49,0.25-2.84-1.03-3.81c-1.21-0.91-2.53-0.96-3.97-0.34c-3.54,1.52-6.58,3.82-9.75,5.93
		c-14.8,9.83-29.56,19.69-43.57,30.66c-7.05,5.52-15.15,8.11-24.25,6.47c-12.68-2.29-19.41-15.4-13.92-27.19
		c2.37-5.08,6.02-9.22,9.87-13.21c0.96-1,2.26-1.91,1.63-3.57c-0.57-1.51-2.01-1.4-3.3-1.58c-8.67-1.2-17.24-2.74-24.86-7.43
		c-7.58-4.66-10.71-11.86-8.49-19.37c1.08-3.65,3.42-6.33,6.51-8.38c6.21-4.11,13.31-5.41,20.5-6.27
		c12.31-1.48,24.7-0.54,37.04-1.17c7.36-0.37,14.55-1.59,21.57-3.71c2.03-0.61,2.74-0.26,3.17,1.88
		c2.54,12.67-4.17,20.69-17.79,20.96C293.68,258.33,287.35,258.23,281.02,258.23z"/>
	<path d="M603.29,257.34c-8.82-0.59-17.64-1.17-26.46-1.77c-2.11-0.14-4.21-0.3-6.29,0.3c-2.54,0.74-4.29,2.16-4.33,5.03
		c-0.05,2.9,1.73,4.54,4.23,5.13c10.25,2.39,20.56,4.48,31.05,5.57c3.39,0.35,6.79,0.73,10.15,1.31c2.91,0.5,5.41,1.93,6.29,4.95
		c0.83,2.87-0.38,5.34-2.45,7.33c-3.75,3.62-8.52,5.14-13.44,6.3c-3.43,0.81-6.77,1.8-9.81,3.64c-1.91,1.15-3.61,2.53-4.93,4.36
		c-1.93,2.69-2.9,5.5-1.2,8.68c1.69,3.18,4.6,3.59,7.75,3.36c4.52-0.33,8.57-2.18,12.33-4.47c19.32-11.74,34.92-27.25,46.49-46.7
		c2.84-4.78,4.68-9.64,3.57-15.65c-1.28-6.94-0.62-14,2.65-20.56c1.41-2.83,3.22-5.35,5.71-7.28c2.76-2.15,5.69-3.78,9.4-2.2
		c3.95,1.69,6.26,4.59,6.8,8.83c0.62,4.84-0.11,9.64-0.92,14.38c-0.82,4.78,0.08,8.74,4,11.83c2.68,2.11,5.3,4.3,7.98,6.41
		c1.66,1.3,3.4,2.5,5.07,3.79c7.22,5.61,7.52,8.1,1.99,15.19c-3.7,4.75-7.63,9.35-9.97,15c-2.22,5.36-1.13,9.24,3.16,11.72
		c2.32,1.34,4.73,1.43,7.26,0.67c3.23-0.96,5.93-2.89,8.76-4.61c1.86-1.13,3.7-2.12,5.82-0.58c2.24,1.64,3.12,3.85,2.74,6.56
		c-0.36,2.57-1.63,4.71-3.31,6.63c-10.16,11.66-28.95,13.43-41.17,3.88c-5.43-4.24-6.48-9.86-5.03-16.22
		c0.94-4.13,2.76-7.94,4.69-11.68c1.2-2.32,2.47-4.6,3.65-6.92c2.98-5.83-0.4-11.45-6.99-11.55c-2.15-0.03-3.81,1-5,2.83
		c-3.69,5.62-7.32,11.28-11.13,16.82c-9.31,13.52-20.81,24.74-35.39,32.49c-11.45,6.09-23.67,9.28-36.77,8.16
		c-9.93-0.86-17.91-7.59-19.76-16.6c-1.02-4.97,0.35-9.32,3.65-13.11c3.08-3.53,7.05-5.93,10.79-8.63c1.39-1,3.61-1.63,3.26-3.89
		c-0.36-2.31-2.55-2.51-4.37-3.03c-7.21-2.07-14.58-3.67-21.21-7.41c-8.13-4.59-11.62-11.9-9.28-19.8c1.45-4.9,4.88-8.21,9.19-10.69
		c7.76-4.47,16.35-6.4,25.08-6.58c16.41-0.32,32.68-1.26,48.61-5.53c2.1-0.56,2.93-0.15,2.9,2.33
		c-0.18,13.41-8.49,21.79-21.88,21.83c-1.31,0-2.61,0-3.92,0C603.3,257.24,603.29,257.29,603.29,257.34z"/>
</g>
</svg>
