<?xml version="1.0" encoding="utf-8"?>
<!-- Generator: Adobe Illustrator 25.2.3, SVG Export Plug-In . SVG Version: 6.00 Build 0)  -->
<svg version="1.1" id="Capa_1" xmlns="http://www.w3.org/2000/svg" xmlns:xlink="http://www.w3.org/1999/xlink" x="0px" y="0px"
	 viewBox="0 0 750 500" style="enable-background:new 0 0 750 500;" xml:space="preserve">
<style type="text/css">
	.st0{fill:#020203;}
</style>
<path id="path3765" class="st0" d="M152.31,163.87c0,0,0-32.13,0-48.6c0-16.51-16.33-31.52-28.95-27.75
	c-12.55,3.82-65.3,19.93-67.46,20.9c-2.16,1-29.72,11.63-29.72,41.79l0.42,195.97c0,0,1.19,19.71,21.7,19.32c0,0,6,0,15.63-5.22
	c0,0,23.72-12.99,25.33-13.7c1.53-0.66,14.44-4.79,14.86,12.86v110.06l38.93-12.47c0,0,0-94.43,0-97.59
	c0-6.63,4.82-39.43,21.7-52.99c1.05-0.88,9.21-6.15,16.46,3.6c7.32,9.75,13.68,11.24,13.68,11.24s7.88,3.47,14.86-8.43
	c0.42-0.83,12.7-21.16,13.25-22.08s2.37-3.64,7.6-3.2c0,0,12.91-0.84,10.88,17.25c0,0,59.72-18.13,64.67-20.9
	c0.76-0.31,23.58-9.44,37.32-30.51c0,0,4.11-6.06,9.28-5.62c0.91,0,13.61,0.79,9.98,17.65c0,0,57.9-17.69,61.11-19.27
	c6.84-2.81,24.91-10.32,24.49-31.3c0.21-6.23-1.47-17.12-10.47-24.93c-0.49-0.48-39.84-29.46-40.19-29.72
	c-3.42-2.9-5.16-9.49,0.42-16.46c0,0,4.4-6.41,10.88-6.01c0,0,4.89-0.22,12.42,9.66c0.97,0.97,6.55,8.43,10.46,9.22
	c0,0,3.21,1.05,7.19-2.81c9.77-8.47,14.86-8.82,14.86-8.82S468,140.96,468,157.03c0,0,0,30.6,0,33.76c0,7.38,9.7,29.98,31.74,28.89
	c0,0,7.6-0.79,14.86-2.81l23.65-7.59c0,0,29.79-8.95,40.18-28.14c0,0,4.95-9.62,12.07-9.62c0,0,12.42-1.62,11.23,17.26l33.77-11.24
	V96c0,0-0.97-9.66,10.4-9.66c11.23,0,10.88,8.82,10.88,8.82s0,165.2,0,168.71c0,4.74,4.95,19.49,21.28,19.27
	c0,0,45.77-0.39,45.77-39.38c0-2.9,0-14.84,0-14.84l-11.65,4v14.09c0,0,0.77,9.49-10.04,10.01c-0.98,0.22-11.58-0.18-11.23-10.45
	V40.16c0,0-0.84-9.66-10.47-9.66c0,0-8.79-0.79-15.63,11.28c-6.84,12.03-9.28,21.25-18.48,21.25c0,0-10.95,1.32-10.82-8.43V44.15
	l-34.6,11.28c0,0,0,38.28,0,39.73c0,9.88-7.39,58.87-20.44,59.04c-0.91,0.13-13.19,1.85-13.68-10.45c0,0,0-42.01,0-46.18
	c0.35-6.23-4.53-24.85-20.09-22.87l-14.02,2.81c0,0,0,96.89,0,100.01c0,3.07-1.12,17.82-17.72,18.48
	c-1.46,0.22-17.65-0.44-17.65-16.07v-65.06c0,0-0.76-11.68,10.88-12.47l0.35-16.86c0,0-35.3,8.04-51.76,37.76
	c-1.95,2.11-6.07,3.99-8.86,3.99c-1.67,0-9.62-0.48-10.04-8.43c0-1.89,0-10.84,0-10.84l-58.25,19.27c0,0-22.88,7.25-22.88,30.56
	c0,0,0,16.07,10.05,23.66l40.6,30.56c0,0,6.91,4.92,3.56,13.26c-0.42,1.4-5.17,11.02-14.86,11.24c-1.89,0.22-8.02,0-11.65-9.26
	c0,0-3.21-12.03-13.6-8.43c0,0-19.53,6.85-20.93,7.24c-1.32,0.4-12.84,2.41-12.84-11.24c0,0,0-41.66,0-45
	c0-3.34-4.12-22.39-20.09-21.69c0,0-9.21,0.79-17.23,4.43v19.67c0,0,10.81-1.62,10.81,12.43v67.91c0,0,0.49,16.95-17.23,17.25
	c-14.86-0.18-17.3-14.36-17.3-16.07c-0.14-9.61,0.42-216.47,0.42-216.47L241.05,51l0.42,148.2c0,0-2.16,48.12-15.7,66.69
	c-3.9,5.31-17.65,5.31-18.84-6.46v-76.3l-34.53,10.84c0,0,0,25.72,0,30.91s-4.82,66.55-22.47,65.67c-2.23,0.05-6.98-2.42-7.05-12.95
	l0.21-74.76l-33.77,12.03c0,0-0.35,41.09-0.42,43.37c-1.05,13.17,0.84,72.7-38.58,72.7c0,0-9.63,0.4-9.63-11.24V153.42
	c0,0,1.12-18.79,15.7-25.33c0,0,14.86-5.31,18.07-6.41c3.14-1.1,15.28,0,15.28,13.26v42.19L152.31,163.87"/>
</svg>
