<?xml version="1.0" encoding="utf-8"?>
<!-- Generator: Adobe Illustrator 25.2.3, SVG Export Plug-In . SVG Version: 6.00 Build 0)  -->
<svg version="1.1" id="Capa_1" xmlns="http://www.w3.org/2000/svg" xmlns:xlink="http://www.w3.org/1999/xlink" x="0px" y="0px"
	 viewBox="0 0 750 500" style="enable-background:new 0 0 750 500;" xml:space="preserve">
<g>
	<path d="M455.87,185c-11.5,0.04-23.01,0.03-34.51,0.01c-0.94,0-1.31,0.25-1.48,1.24c-0.99,5.92-2.08,11.83-3.12,17.74
		c-1.85,10.49-3.69,20.99-5.54,31.48c-0.65,3.68-1.31,7.37-2.02,11.35c-0.2-0.51-0.31-0.72-0.35-0.93
		c-1.47-7.21-2.94-14.41-4.41-21.62c-2.6-12.69-5.22-25.37-7.77-38.06c-0.2-1-0.6-1.19-1.52-1.19c-11.01,0.03-22.01,0.03-33.02-0.01
		c-1.08,0-1.37,0.32-1.37,1.38c0.02,42.56,0.03,85.12,0,127.69c0,1.19,0.42,1.4,1.49,1.39c5.71-0.05,11.41-0.02,17.12-0.02
		c1.81,0,1.81,0,1.81-1.82c0-31.29,0-62.58,0-93.86c0-0.48,0-0.96,0-1.44c0.1,0,0.2,0,0.3,0c0.07,0.35,0.13,0.7,0.2,1.05
		c2.42,11.85,4.85,23.7,7.27,35.55c3.18,15.56,6.35,31.13,9.52,46.69c0.15,0.72,0.43,1.03,1.25,1.03c5.66-0.04,11.32-0.05,16.98,0
		c0.91,0.01,1.16-0.37,1.29-1.13c0.54-3.16,1.1-6.32,1.66-9.47c1.86-10.44,3.73-20.89,5.59-31.33c1.85-10.4,3.7-20.8,5.55-31.2
		c0.75-4.19,1.5-8.38,2.25-12.56c0.07,0.01,0.14,0.01,0.22,0.02c0,0.58,0,1.17,0,1.75c0,31.74,0.01,63.48-0.02,95.22
		c0,1.14,0.21,1.56,1.46,1.54c7.02-0.07,14.04-0.05,21.06-0.01c1.09,0.01,1.45-0.23,1.45-1.4c-0.03-42.56-0.03-85.12-0.01-127.69
		C457.22,185.33,456.96,185,455.87,185z"/>
	<path d="M629.09,185.01c-6.75,0.05-13.5,0.06-20.24-0.01c-1.33-0.01-1.74,0.26-1.74,1.68c0.06,15.57,0.01,31.15,0.08,46.72
		c0.01,1.44-0.43,1.7-1.74,1.68c-7.25-0.06-14.49-0.06-21.74,0c-1.3,0.01-1.66-0.31-1.66-1.64c0.05-15.67,0.02-31.33,0.05-47
		c0-1.12-0.29-1.46-1.43-1.45c-6.61,0.05-13.22,0.06-19.83-0.01c-1.27-0.01-1.56,0.36-1.56,1.58c0.04,21.23,0.03,42.47,0.03,63.7
		c0,21.23,0.01,42.47-0.03,63.7c0,1.17,0.25,1.54,1.48,1.52c6.52-0.06,13.04-0.03,19.56-0.03c1.76,0,1.76,0,1.76-1.76
		c0-18.02,0.01-36.04-0.03-54.06c0-1.21,0.32-1.51,1.51-1.5c7.29,0.06,14.58,0.03,21.87,0.03c1.71,0,1.71,0,1.71,1.79
		c0,18.02,0.01,36.04-0.02,54.06c0,1.07,0.19,1.48,1.38,1.47c6.84-0.06,13.68-0.05,20.51,0c1.13,0.01,1.44-0.32,1.44-1.45
		c-0.03-42.56-0.03-85.12,0-127.68C630.47,185.3,630.16,185,629.09,185.01z"/>
	<path d="M346,291.68c-1.41-8.51-2.83-17.01-4.23-25.52c-1.49-9.04-2.97-18.09-4.46-27.13c-1.4-8.51-2.82-17.02-4.22-25.52
		c-1.49-9.04-2.99-18.09-4.45-27.14c-0.16-0.98-0.44-1.37-1.51-1.36c-5.43,0.06-10.87,0.03-16.3,0.03c-5.39,0-10.78,0.06-16.17-0.04
		c-1.32-0.02-1.68,0.45-1.88,1.59c-0.6,3.52-1.27,7.02-1.91,10.53c-3.44,18.83-6.88,37.65-10.32,56.48
		c-3.7,20.25-7.38,40.5-11.1,60.74c-0.18,0.96,0.1,1.17,1,1.17c6.3-0.03,12.59-0.02,18.89,0c0.79,0,1.11-0.28,1.24-1.06
		c1.53-9.36,3.1-18.71,4.62-28.07c0.15-0.93,0.48-1.25,1.47-1.25c7.97,0.04,15.94,0.05,23.91,0c1.01-0.01,1.3,0.35,1.44,1.25
		c1.46,9.23,2.96,18.46,4.42,27.69c0.16,0.99,0.44,1.46,1.59,1.45c6.84-0.06,13.68-0.06,20.52,0c1.25,0.01,1.36-0.4,1.17-1.5
		C348.43,306.57,347.23,299.12,346,291.68z M317.43,263.44c-5.84-0.01-11.68-0.02-17.51,0.01c-0.85,0-0.81-0.36-0.7-1
		c0.98-5.83,1.93-11.66,2.9-17.49c1.49-8.99,3-17.98,4.49-26.97c0.65-3.92,1.29-7.84,1.94-11.75c0.03-0.17,0.08-0.36,0.4-0.39
		c0.76,4.65,1.51,9.31,2.27,13.97c1.41,8.69,2.81,17.37,4.21,26.06c0.9,5.57,1.78,11.14,2.71,16.7
		C318.25,263.26,318.09,263.44,317.43,263.44z"/>
	<path d="M721.4,314.43c-0.21-0.68-0.23-1.42-0.34-2.14c-1.4-8.51-2.81-17.01-4.22-25.52c-1.49-9.04-2.98-18.08-4.47-27.13
		c-1.4-8.51-2.81-17.01-4.21-25.52c-1.49-9.04-2.99-18.08-4.48-27.12c-1.16-6.99-2.33-13.98-3.46-20.98
		c-0.11-0.69-0.28-1.01-1.06-1.01c-11.14,0.02-22.28,0.02-33.42,0c-0.75,0-1.06,0.28-1.17,0.97c-0.36,2.09-0.74,4.18-1.12,6.26
		c-1.94,10.66-3.88,21.31-5.83,31.97c-2.04,11.19-4.09,22.37-6.14,33.56c-1.95,10.65-3.9,21.31-5.86,31.96
		c-1.49,8.12-2.95,16.25-4.48,24.37c-0.22,1.19,0.11,1.41,1.24,1.4c5.93-0.05,11.86-0.03,17.8-0.03c1.92,0,1.87-0.01,2.19-1.94
		c1.5-9.09,3.05-18.16,4.52-27.25c0.15-0.93,0.45-1.16,1.35-1.16c8.01,0.03,16.03,0.03,24.04,0c0.89,0,1.21,0.23,1.36,1.18
		c1.47,9.32,3.04,18.62,4.49,27.95c0.18,1.14,0.66,1.25,1.57,1.24c3.4-0.03,6.79-0.01,10.19-0.01c3.53,0,7.06-0.01,10.6,0.01
		C721.26,315.49,721.68,315.38,721.4,314.43z M688.72,263.45c-5.62-0.04-11.23-0.04-16.85,0c-1.05,0.01-1.15-0.34-0.99-1.27
		c1.81-10.68,3.57-21.37,5.35-32.06c1.36-8.15,2.73-16.29,4.1-24.44c0.08-0.01,0.16-0.03,0.23-0.04c0.54,3.29,1.08,6.58,1.61,9.87
		c1.32,8.16,2.64,16.31,3.96,24.47c1.21,7.44,2.41,14.89,3.64,22.33C689.92,263.21,689.62,263.45,688.72,263.45z"/>
	<path d="M542.81,281.88c-2.63-15.9-5.25-31.8-7.87-47.7c-2.64-15.99-5.29-31.98-7.87-47.98c-0.17-1.07-0.62-1.19-1.5-1.18
		c-5.43,0.02-10.87,0.01-16.3,0.01c-5.48,0-10.96,0.02-16.44-0.02c-0.91-0.01-1.4,0.15-1.49,1.21c-0.13,1.39-0.5,2.75-0.75,4.13
		c-1.96,10.7-3.91,21.4-5.87,32.1c-1.94,10.61-3.88,21.22-5.82,31.83c-1.95,10.7-3.91,21.4-5.86,32.1
		c-1.72,9.41-3.43,18.83-5.17,28.23c-0.13,0.73,0.09,0.87,0.73,0.87c6.48-0.01,12.95-0.01,19.43,0c0.59,0,0.86-0.19,0.96-0.84
		c0.69-4.32,1.43-8.64,2.15-12.96c0.85-5.12,1.7-10.24,2.54-15.36c0.13-0.8,0.36-1.21,1.34-1.21c8.06,0.05,16.12,0.04,24.18,0.01
		c0.81,0,1.13,0.26,1.24,1.02c0.26,1.83,0.57,3.66,0.86,5.49c1.21,7.53,2.45,15.06,3.62,22.6c0.16,1.04,0.6,1.27,1.58,1.26
		c6.79-0.04,13.58-0.06,20.38,0.01c1.33,0.01,1.48-0.45,1.29-1.57C546.36,303.26,544.58,292.57,542.81,281.88z M515.67,263.45
		c-5.66-0.03-11.32-0.05-16.98,0.01c-1.11,0.01-1.15-0.47-1.01-1.3c0.77-4.54,1.54-9.08,2.3-13.62c1.49-8.95,2.98-17.9,4.47-26.85
		c0.84-5.08,1.68-10.16,2.52-15.23c0.04-0.26,0.15-0.51,0.23-0.77c0.06,0,0.13-0.01,0.19-0.01c2.29,14.22,4.57,28.44,6.86,42.65
		c0.75,4.68,1.52,9.36,2.33,14.03C516.74,263.21,516.55,263.45,515.67,263.45z"/>
	<path d="M276.22,186.5c0.38-1.11,0.43-1.52-0.99-1.5c-6.16,0.08-12.32,0.06-18.48,0.01c-1.03-0.01-1.48,0.31-1.81,1.29
		c-4.33,12.87-8.7,25.72-13.06,38.58c-1.2,3.52-2.41,7.04-3.74,10.93c-0.27-0.75-0.41-1.08-0.52-1.42
		c-4.91-15.99-9.83-31.98-14.7-47.99c-0.32-1.04-0.73-1.4-1.85-1.39c-6.66,0.06-13.31,0.05-19.97,0.01
		c-1.12-0.01-1.35,0.21-0.99,1.33c8.21,25.78,16.39,51.57,24.59,77.36c0.26,0.83,0.39,1.65,0.39,2.52
		c-0.01,15.85-0.01,31.69-0.01,47.54c0,1.83-0.32,1.71,1.76,1.71c7.34,0.01,14.67-0.03,22.01,0.03c1.25,0.01,1.56-0.34,1.56-1.58
		c-0.04-16.71-0.03-33.41-0.04-50.12c0-0.87,0.14-1.68,0.42-2.51C259.27,236.37,267.73,211.43,276.22,186.5z"/>
	<path d="M108.07,171.97c-43.13-0.05-78.14,34.96-78.23,78.21c-0.08,43.23,34.96,78.33,78.22,78.32c43.23,0,78.13-34.89,78.22-78.18
		C186.38,207.11,151.35,172.01,108.07,171.97z M108.04,325.23c-41.46-0.07-74.9-33.51-74.92-74.94
		c-0.02-41.46,33.53-75.04,74.97-75.03c41.38,0.01,74.88,33.52,74.93,74.95C183.08,291.64,149.44,325.3,108.04,325.23z"/>
	<path d="M108.08,183.82c-36.61,0-66.43,29.68-66.46,66.15c-0.03,36.89,29.6,66.71,66.3,66.73c36.76,0.02,66.58-29.67,66.6-66.3
		C174.54,213.57,144.86,183.82,108.08,183.82z M155.91,234.94c-8.43,4.84-16.84,9.71-25.26,14.58c-0.39,0.22-0.77,0.46-1.27,0.76
		c1.58,0.91,3.05,1.77,4.53,2.62c3.79,2.2,6.24,5.39,7.24,9.7c1.02,4.4,3.95,6.02,8.32,4.64c1.01-0.32,1.77-0.05,2.41,0.71
		c3.47,4.06,6.94,8.13,10.41,12.18c0.44,0.52,0.77,1.05,0.35,1.7c-0.41,0.63-1.01,0.57-1.69,0.44c-5.15-0.97-10.3-1.91-15.45-2.85
		c-1.21-0.22-1.84-0.85-2.1-2.11c-0.83-4-3.91-5.82-7.79-4.63c-4.46,1.38-8.65,0.86-12.63-1.55c-1.04-0.63-2.14-1.18-3.17-1.83
		c-0.94-0.6-1.1-0.27-1.09,0.68c0.03,3.62,0.01,7.24,0.01,10.87c0,6.16-0.02,12.32,0.02,18.47c0.01,1.04-0.25,1.46-1.36,1.38
		c-1.35-0.1-2.72-0.1-4.07,0c-1.21,0.09-1.61-0.25-1.6-1.54c0.06-8.65,0.03-17.3,0.03-25.94c0-1.86-0.16-3.73,0.04-5.56
		c0.25-2.23-0.45-3.62-2.56-4.49c-0.88-0.36-1.45-0.39-2.33,0c-1.98,0.87-2.62,2.11-2.59,4.35c0.15,10.5,0.04,21.01,0.11,31.51
		c0.01,1.43-0.42,1.79-1.75,1.68c-1.3-0.11-2.63-0.1-3.94,0c-1.1,0.08-1.36-0.33-1.36-1.38c0.04-8.69,0.02-17.39,0.02-26.08
		c0-1.04-0.04-2.09,0.01-3.12c0.06-1.07-0.12-1.45-1.2-0.74c-1.21,0.79-2.49,1.48-3.76,2.17c-3.67,1.99-7.5,2.46-11.53,1.24
		c-4.39-1.32-7.25,0.34-8.26,4.79c-0.22,0.96-0.69,1.56-1.64,1.74c-5.41,1.02-10.83,2.04-16.24,3.06c-0.54,0.1-0.99-0.08-1.29-0.54
		c-0.34-0.54-0.2-1.04,0.18-1.49c3.59-4.2,7.17-8.4,10.78-12.58c0.58-0.68,1.34-0.78,2.22-0.51c4.42,1.38,7.28-0.26,8.35-4.78
		c0.95-4.04,3.23-7.12,6.76-9.27c1.61-0.98,3.26-1.9,5.02-2.92c-4.72-2.73-9.3-5.37-13.87-8.02c-4.23-2.44-8.45-4.9-12.7-7.31
		c-0.84-0.47-1.12-0.83-0.51-1.74c0.84-1.23,1.59-2.53,2.24-3.87c0.47-0.98,0.91-0.91,1.75-0.43c9.58,5.57,19.18,11.08,28.75,16.66
		c0.95,0.55,1.7,0.71,2.54-0.02c0.03-0.03,0.08-0.04,0.12-0.07c0.72-0.53,1.95-0.66,2.15-1.51c0.29-1.2,0.13-2.52,0.09-3.78
		c-0.02-0.67-0.7-0.77-1.15-1.03c-9.51-5.5-19.02-11.01-28.56-16.47c-1.07-0.61-1.45-1.05-0.62-2.18c0.82-1.13,1.48-2.38,2.11-3.63
		c0.42-0.84,0.8-0.93,1.63-0.45c5.5,3.23,11.03,6.4,16.55,9.58c3.28,1.89,6.55,3.78,10.08,5.82c0-1.59,0.03-2.93-0.01-4.26
		c-0.13-4.98,1.51-9.17,5.27-12.57c2.73-2.47,2.63-6.28-0.17-8.69c-1.15-0.99-1.34-1.96-0.84-3.34c1.73-4.75,3.38-9.53,5.05-14.3
		c0.24-0.7,0.48-1.47,1.37-1.47c0.88,0,1.13,0.77,1.38,1.47c1.69,4.81,3.36,9.63,5.08,14.43c0.45,1.26,0.27,2.2-0.79,3.12
		c-2.92,2.53-2.99,6.29-0.15,8.88c3.54,3.22,5.18,7.2,5.15,11.94c-0.01,1.09,0,2.17,0,3.26c0.01,1.54,0.01,1.55,1.29,0.81
		c5.44-3.15,10.88-6.3,16.32-9.44c3.01-1.74,6.05-3.44,9.04-5.24c0.84-0.51,1.2-0.36,1.62,0.46c0.66,1.29,1.37,2.55,2.17,3.75
		c0.61,0.91,0.54,1.34-0.48,1.92c-7.98,4.54-15.91,9.16-23.86,13.75c-1.72,1-3.43,2.02-5.17,2.97c-0.68,0.37-1.07,0.8-0.94,1.6
		c0.01,0.09,0,0.18,0,0.27c-0.02,3.2,0.31,3.66,3.22,4.89c0.64,0.27,1.04-0.08,1.49-0.34c9.59-5.54,19.19-11.07,28.76-16.65
		c1.01-0.59,1.58-0.67,2.13,0.53c0.58,1.27,1.31,2.49,2.09,3.64C157.04,234.1,156.74,234.46,155.91,234.94z"/>
	<path d="M95.47,255.26c-0.27-0.16-0.56-0.29-0.81-0.49c-0.62-0.48-1.17-0.41-1.83-0.02c-2.59,1.55-5.22,3.04-7.83,4.56
		c-2.16,1.27-2.84,3.33-1.77,5.24c1.06,1.88,3.28,2.39,5.4,1.2c2.32-1.3,4.57-2.73,6.93-3.95c1.42-0.73,2.24-1.59,1.84-2.99
		C97.34,255.92,97.82,256.66,95.47,255.26z"/>
	<path d="M122.29,254.39c-1.11,0.6-2.28,1.15-3.27,1.91c-0.65,0.51-0.16,1.46-0.33,2.29c0.31,0.78-0.48,1.88,0.78,2.57
		c2.78,1.52,5.49,3.15,8.24,4.72c0.89,0.51,1.84,0.75,2.87,0.44c1.59-0.47,2.56-1.53,2.76-3.17c0.2-1.66-0.58-2.89-1.98-3.72
		c-2.73-1.6-5.48-3.17-8.22-4.75C122.88,254.52,122.6,254.22,122.29,254.39z"/>
	<path d="M104.59,235.93c1.07,0.67,2.12,1.43,3.29,1.87c0.78,0.29,1.4-0.67,2.14-0.94c1.45-0.52,1.93-1.49,1.76-3
		c-0.14-1.2-0.03-2.44-0.03-3.66c0-1.63,0.02-3.26-0.01-4.88c-0.04-2.15-1.6-3.71-3.66-3.72c-2.07,0-3.66,1.55-3.69,3.7
		c-0.04,3.21-0.02,6.42-0.01,9.63C104.39,235.27,104.23,235.71,104.59,235.93z"/>
	<path d="M112.35,250.26c-0.24-0.87,0.46-2.02-0.4-2.65c-1.19-0.87-2.58-2.07-3.87-2.04c-1.35,0.03-2.71,1.29-3.99,2.11
		c-0.56,0.36-0.28,1.11-0.24,1.65c0.09,1.19-0.59,2.66,0.32,3.49c1.09,1,2.54,2.2,3.95,2.11c1.34-0.08,2.69-1.19,3.87-2.08
		C112.76,252.27,112.16,251.15,112.35,250.26z"/>
</g>
</svg>
